<svg width="77" height="77" viewBox="0 0 77 77" fill="none" xmlns="http://www.w3.org/2000/svg">
<path d="M38.3309 75.6042C58.9483 75.6042 75.6619 58.9035 75.6619 38.3021C75.6619 17.7007 58.9483 1 38.3309 1C17.7136 1 1 17.7007 1 38.3021C1 58.9035 17.7136 75.6042 38.3309 75.6042Z" fill="white" stroke="#E3773B" stroke-width="1.51" stroke-miterlimit="10"/>
<path d="M66.4323 33.6108C67.2244 38.3251 66.8341 43.3033 65.0662 48.1095C59.6365 62.8606 43.2669 70.4311 28.5044 65.0056L43.3243 51.8948C47.1814 50.4724 50.4186 47.4442 51.9453 43.2919C54.2412 37.0634 51.9797 30.2614 46.837 26.5564L66.1682 33.6567L66.4438 33.6108H66.4323Z" fill="#F6B35A"/>
<path d="M66.4323 33.6108L66.1568 33.6567L46.8255 26.5564C45.7694 25.7994 44.6099 25.1685 43.3243 24.6982C35.8053 21.9338 27.4712 25.7879 24.7162 33.3011C24.4177 34.104 24.1996 34.9184 24.0504 35.7213L20.3081 16.2444C27.8501 10.0962 38.3537 7.98564 48.1456 11.5759C58.0982 15.235 64.7792 23.8608 66.4208 33.6108H66.4323Z" fill="#F6B35A"/>
<path d="M42.1535 27.9215C47.8818 30.0206 50.8205 36.3753 48.7083 42.0991C46.5961 47.8229 40.248 50.7593 34.5198 48.6487C28.7916 46.5496 25.8528 40.195 27.965 34.4712C30.0657 28.7474 36.4253 25.8109 42.1535 27.9215Z" fill="#EE7A3A"/>
<path d="M43.3243 51.8833L28.5044 65.0056C13.7419 59.58 6.16551 43.2231 11.5953 28.472C13.4205 23.5052 16.4855 19.3529 20.3196 16.2444L24.0619 35.7213C22.8221 42.5234 26.6103 49.4286 33.3257 51.8948C36.6892 53.1336 40.2019 53.0418 43.3128 51.8948L43.3243 51.8833Z" fill="#F6B35A"/>
<path d="M67.5802 33.4157C65.8239 22.9316 58.5345 14.1452 48.5589 10.4861C38.7785 6.89586 27.6779 8.7541 19.5849 15.3382C15.4753 18.6761 12.3414 23.0808 10.5047 28.0704C7.77265 35.4919 8.09408 43.5442 11.4231 50.7247C14.7406 57.9053 20.664 63.3652 28.1027 66.0952C31.4432 67.3226 34.8984 67.9305 38.3537 67.9305C42.5896 67.9305 46.8141 67.0129 50.7744 65.1776C57.9605 61.8626 63.4247 55.9438 66.1568 48.5109C67.9361 43.6933 68.4182 38.4742 67.5802 33.4157ZM38.3882 11.0023C41.545 11.0023 44.7248 11.5529 47.7668 12.6655C56.3649 15.8314 62.8048 23.1267 64.9285 31.9704L47.3765 25.524C46.263 24.7325 45.0462 24.0902 43.749 23.6199C36.23 20.8555 27.9305 24.2507 24.3948 31.2248L21.6053 16.7376C26.4611 12.9867 32.3959 11.0253 38.3996 11.0253L38.3882 11.0023ZM42.9225 50.805C39.9608 51.8947 36.7007 51.8947 33.7275 50.805C27.6205 48.5568 24.0389 42.3054 25.1983 35.9163C25.3361 35.1592 25.5428 34.4137 25.8068 33.691C27.7927 28.2999 32.901 24.9619 38.3422 24.9619C39.869 24.9619 41.4187 25.2257 42.934 25.7763C44.0819 26.2007 45.161 26.7743 46.1482 27.4855C50.9696 30.9725 52.8981 37.3042 50.8433 42.8904C49.4887 46.5724 46.5959 49.4515 42.9111 50.805H42.9225ZM13.5238 49.7497C10.4588 43.1312 10.1604 35.7098 12.6743 28.8734C14.1322 24.8931 16.497 21.3258 19.5505 18.4467L22.8795 35.7442C21.6397 43.1542 25.8297 50.3806 32.924 52.9844C34.6688 53.6268 36.4941 53.948 38.3193 53.948C38.6407 53.948 38.9736 53.9365 39.2951 53.9135L28.2519 63.6864C21.6971 61.0941 16.474 56.1847 13.5123 49.7727L13.5238 49.7497ZM63.9757 47.708C61.4617 54.5559 56.4223 60.0158 49.7987 63.067C43.772 65.8543 37.1025 66.3476 30.7888 64.5238L43.9442 52.8812C48.1571 51.2638 51.4632 47.9259 53.0244 43.6818C54.8152 38.8298 54.0231 33.4845 51.1992 29.3781L65.4107 34.5972C66.0076 39.0018 65.514 43.5098 63.9757 47.6965V47.708Z" fill="#EE7A3A"/>
</svg>
