<svg width="99" height="99" viewBox="0 0 99 99" fill="none" xmlns="http://www.w3.org/2000/svg">
<path d="M89.1833 9.08459H1.07907V97.1208H89.1833V9.08459Z" fill="white"/>
<path d="M89.1833 98.1991H1.07906C0.482134 98.1991 0 97.7173 0 97.1208V9.08457C0 8.4881 0.482134 8.00635 1.07906 8.00635H89.1833C89.7803 8.00635 90.2624 8.4881 90.2624 9.08457V97.1208C90.2624 97.7173 89.7803 98.1991 89.1833 98.1991ZM2.1696 96.0311H88.1043V10.1628H2.1696V96.0311Z" fill="#EE7A3A"/>
<path d="M59.0844 63.0879H39.0299V55.632H47.5935V50.3785L43.6331 54.3359H35.9764V63.0879H24.5544V54.3359H15.853V46.5474H47.5935V27.6095H59.0844V63.0879ZM73.2959 84.6869H22.0175V64.7052H34.7366V67.4237H60.5767V64.7052H73.2959V84.6869ZM60.5767 77.0934V74.501H34.7366V77.0934H60.5767ZM73.2959 63.0879H61.6787V27.4146H73.2959V63.0879Z" fill="#EE7A3A"/>
<path d="M89.1835 17.091C93.6088 17.091 97.1961 13.5064 97.1961 9.08454C97.1961 4.66272 93.6088 1.07812 89.1835 1.07812C84.7583 1.07812 81.1709 4.66272 81.1709 9.08454C81.1709 13.5064 84.7583 17.091 89.1835 17.091Z" fill="white"/>
<path d="M89.1835 18.1693C84.167 18.1693 80.0918 14.0973 80.0918 9.08465C80.0918 4.07203 84.167 0 89.1835 0C94.2 0 98.2751 4.07203 98.2751 9.08465C98.2751 14.0973 94.2 18.1693 89.1835 18.1693ZM89.1835 2.16793C85.3608 2.16793 82.2614 5.27644 82.2614 9.08465C82.2614 12.8929 85.3723 16.0014 89.1835 16.0014C92.9946 16.0014 96.1055 12.8929 96.1055 9.08465C96.1055 5.27644 92.9946 2.16793 89.1835 2.16793Z" fill="#EE7A3A"/>
<path d="M85.6593 10.2431C85.0739 10.2431 84.5918 9.77286 84.5803 9.18786C84.5688 8.5914 85.0395 8.09816 85.6364 8.07522L92.6733 7.91463C93.2702 7.90316 93.7638 8.37345 93.7868 8.96992C93.7982 9.56639 93.3276 10.0596 92.7306 10.0826L85.6938 10.2431H85.6708H85.6593Z" fill="#EE7A3A"/>
<path d="M89.2637 13.6728C88.6782 13.6728 88.1961 13.2025 88.1846 12.6175L88.0239 5.58611C88.0124 4.98965 88.4831 4.49641 89.08 4.47347C89.6769 4.462 90.1705 4.93229 90.1935 5.52876L90.3542 12.5602C90.3657 13.1567 89.895 13.6499 89.2981 13.6728H89.2751H89.2637Z" fill="#EE7A3A"/>
<path d="M31.3389 47.66C38.4586 47.66 44.2302 41.8928 44.2302 34.7786C44.2302 27.6644 38.4586 21.8972 31.3389 21.8972C24.2192 21.8972 18.4475 27.6644 18.4475 34.7786C18.4475 41.8928 24.2192 47.66 31.3389 47.66Z" fill="white"/>
<path d="M31.3617 21.8972C37.9394 21.8972 43.5643 26.9098 44.1842 33.5856C44.8385 40.6744 39.6269 46.9488 32.5441 47.6026C32.1423 47.637 31.729 47.66 31.3387 47.66C24.7611 47.66 19.1362 42.6473 18.5163 35.9715C17.8619 28.8827 23.0736 22.6083 30.1564 21.9545C30.5581 21.9201 30.9714 21.8972 31.3617 21.8972ZM31.3617 19.7292C30.891 19.7292 30.4204 19.7522 29.9497 19.7981C25.9434 20.1651 22.3274 22.0807 19.756 25.1777C17.1847 28.2748 15.9793 32.1748 16.3467 36.178C16.691 39.9403 18.4244 43.3929 21.2254 45.9279C24.0034 48.44 27.585 49.8279 31.3273 49.8279C31.7979 49.8279 32.2686 49.805 32.7392 49.7591C41.0044 48.9905 47.1114 41.6494 46.3423 33.3792C45.9979 29.6283 44.2645 26.1642 41.4636 23.6292C38.6855 21.1172 35.104 19.7292 31.3617 19.7292Z" fill="#EE7A3A"/>
<path d="M31.3389 47.66C35.5739 47.66 39.0071 41.8928 39.0071 34.7786C39.0071 27.6644 35.5739 21.8972 31.3389 21.8972C27.1038 21.8972 23.6707 27.6644 23.6707 34.7786C23.6707 41.8928 27.1038 47.66 31.3389 47.66Z" fill="white"/>
<path d="M31.3389 48.3024C26.7586 48.3024 23.0278 42.2345 23.0278 34.7672C23.0278 27.2998 26.7586 21.2319 31.3389 21.2319C35.9192 21.2319 39.65 27.2998 39.65 34.7672C39.65 42.2345 35.9192 48.3024 31.3389 48.3024ZM31.3389 22.5396C27.4704 22.5396 24.325 28.0225 24.325 34.7672C24.325 41.5118 27.4704 46.9947 31.3389 46.9947C35.2075 46.9947 38.3528 41.5118 38.3528 34.7672C38.3528 28.0225 35.2075 22.5396 31.3389 22.5396Z" fill="#EE7A3A"/>
<path d="M31.3389 48.3024C30.983 48.3024 30.6846 48.0156 30.6846 47.6485V21.8858C30.6846 21.5302 30.9716 21.2319 31.3389 21.2319C31.7062 21.2319 31.9932 21.5187 31.9932 21.8858V47.6485C31.9932 48.0041 31.7062 48.3024 31.3389 48.3024Z" fill="#EE7A3A"/>
<path d="M44.2302 35.4209H18.4475C18.0917 35.4209 17.7932 35.1342 17.7932 34.7671C17.7932 34.4 18.0802 34.1133 18.4475 34.1133H44.2302C44.5861 34.1133 44.8846 34.4 44.8846 34.7671C44.8846 35.1342 44.5976 35.4209 44.2302 35.4209Z" fill="#EE7A3A"/>
<path d="M40.6944 44.299C40.5567 44.299 40.4189 44.2532 40.3041 44.1729C37.9968 42.4294 34.7252 41.4314 31.3502 41.4314C27.9753 41.4314 24.7037 42.4294 22.3963 44.1729C22.1093 44.3908 21.6961 44.3335 21.4894 44.0467C21.2713 43.7599 21.3287 43.3585 21.6157 43.1405C24.1871 41.202 27.6424 40.1353 31.3502 40.1353C35.0581 40.1353 38.5134 41.202 41.0847 43.1405C41.3717 43.3585 41.4291 43.7599 41.211 44.0467C41.0847 44.2188 40.8896 44.3105 40.6944 44.3105V44.299Z" fill="#EE7A3A"/>
<path d="M31.3388 29.4218C27.6309 29.4218 24.1756 28.3551 21.6042 26.4166C21.3172 26.1986 21.2599 25.7972 21.478 25.5104C21.6961 25.2236 22.0978 25.1663 22.3848 25.3842C24.7037 27.1277 27.9638 28.1257 31.3388 28.1257C34.7137 28.1257 37.9853 27.1277 40.2927 25.3842C40.5797 25.1663 40.9814 25.2236 41.1995 25.5104C41.4177 25.7972 41.3603 26.1986 41.0733 26.4166C38.5019 28.3551 35.0466 29.4218 31.3388 29.4218Z" fill="#EE7A3A"/>
</svg>
