<svg width="40" height="49" viewBox="0 0 40 49" fill="none" xmlns="http://www.w3.org/2000/svg">
<path d="M2.18359 2.1665L8.70387 46.4427L19.77 32.6551L37.2646 29.994L2.18359 2.1665Z" fill="white"/>
<path d="M8.70366 48.5983C8.51999 48.5983 8.31336 48.5753 8.12969 48.5295C7.30318 48.3 6.68328 47.6118 6.54553 46.763L0.0252495 2.4868C-0.112503 1.61504 0.323729 0.743269 1.08137 0.284449C1.83901 -0.151431 2.80327 -0.0826039 3.51499 0.467981L38.596 28.2955C39.2618 28.8231 39.5603 29.7178 39.3536 30.5437C39.147 31.3696 38.4353 31.989 37.5858 32.1266L20.9407 34.6731L10.4026 47.7954C9.98936 48.323 9.36946 48.5983 8.70366 48.5983ZM5.1221 7.25854L10.1271 41.2113L18.0938 31.3007C18.4382 30.8878 18.9203 30.5896 19.4484 30.5208L32.0068 28.5937L5.1221 7.25854Z" fill="#EE7A3A"/>
<path d="M2.18359 2.1665L8.70387 46.4427L19.77 32.6551L37.2646 29.994L2.18359 2.1665Z" fill="white"/>
<path d="M8.70366 48.5983C8.51999 48.5983 8.31336 48.5753 8.12969 48.5295C7.30318 48.3 6.68328 47.6118 6.54553 46.763L0.0252495 2.4868C-0.112503 1.61504 0.323729 0.743269 1.08137 0.284449C1.83901 -0.151431 2.80327 -0.0826039 3.51499 0.467981L38.596 28.2955C39.2618 28.8231 39.5603 29.7178 39.3536 30.5437C39.147 31.3696 38.4353 31.989 37.5858 32.1266L20.9407 34.6731L10.4026 47.7954C9.98936 48.323 9.36946 48.5983 8.70366 48.5983ZM5.1221 7.25854L10.1271 41.2113L18.0938 31.3007C18.4382 30.8878 18.9203 30.5896 19.4484 30.5208L32.0068 28.5937L5.1221 7.25854Z" fill="#EE7A3A"/>
</svg>
