<svg width="182" height="152" viewBox="0 0 182 152" fill="none" xmlns="http://www.w3.org/2000/svg">
<path d="M53.7148 9.79696L166.242 78.7607C173.729 83.3495 176.085 93.1479 171.5 100.63L141.147 150.155L15.0549 72.8776C7.56741 68.2888 5.21151 58.4905 9.79676 51.0088L31.8419 15.0382C36.4272 7.5565 46.2273 5.20817 53.7148 9.79696Z" fill="#EE7A3A"/>
<path d="M140.578 151.084L16.443 75.0064C7.37976 69.4519 4.5193 57.555 10.0695 48.4988L29.7232 16.4303C35.2734 7.37408 47.1627 4.51681 56.2357 10.0773L164.857 76.6478C173.921 82.2023 176.781 94.0992 171.231 103.155L142.077 150.725C141.765 151.234 141.103 151.392 140.594 151.081L140.578 151.084ZM55.1029 11.9257C47.0576 6.99505 36.4999 9.52489 31.573 17.564L11.9194 49.6325C6.99249 57.6716 9.53048 68.2273 17.5758 73.158L140.791 148.672L169.381 102.022C174.308 93.9826 171.77 83.4269 163.725 78.4962L55.1029 11.9257Z" fill="#EE7A3A"/>
<path d="M49.3591 64.0485C48.3462 65.7013 47.0003 66.7331 45.3432 67.1301C43.6862 67.5272 42.0179 67.2177 40.3638 66.204L26.4851 57.6983L30.6987 50.8229L42.5122 58.063L57.1011 34.2586L64.7452 38.9434L49.3591 64.0485Z" fill="white"/>
<path d="M77.0374 88.68L55.8181 75.6755C54.164 74.6617 53.131 73.3156 52.7327 71.6589C52.3343 70.0021 52.6428 68.3346 53.6557 66.6818L65.6253 47.1512C66.6382 45.4984 67.9841 44.4667 69.6412 44.0696C71.3042 43.6628 72.9665 43.982 74.6206 44.9958L95.8399 58.0003L91.6263 64.8756L72.4722 53.1367L69.4753 58.0267L88.0226 69.3937L84.1566 75.7018L65.6093 64.3348L62.0969 70.0658L81.2511 81.8047L77.0374 88.68Z" fill="white"/>
<path d="M102.437 96.5779C101.424 98.2308 100.078 99.2625 98.4209 99.6595C96.7638 100.057 95.0955 99.7472 93.4414 98.7334L79.5627 90.2277L83.7764 83.3524L95.5899 90.5925L110.179 66.7881L117.823 71.4728L102.437 96.5779Z" fill="white"/>
<path d="M133.874 115.845C132.861 117.498 131.515 118.529 129.858 118.926C128.201 119.323 126.533 119.014 124.879 118L108.896 108.205C107.242 107.191 106.209 105.845 105.81 104.188C105.412 102.532 105.72 100.864 106.733 99.2112L122.119 74.1061L129.763 78.7908L115.175 102.595L127.027 109.859L141.616 86.0549L149.26 90.7397L133.874 115.845Z" fill="white"/>
</svg>
