<svg width="197" height="197" viewBox="0 0 197 197" fill="none" xmlns="http://www.w3.org/2000/svg">
<path d="M178.367 18.1687H2.1582V194.241H178.367V18.1687Z" fill="white"/>
<path d="M178.367 196.398H2.15812C0.964268 196.398 0 195.434 0 194.241V18.1689C0 16.976 0.964268 16.0125 2.15812 16.0125H178.367C179.561 16.0125 180.525 16.976 180.525 18.1689V194.241C180.525 195.434 179.561 196.398 178.367 196.398ZM4.33921 192.062H176.209V20.3254H4.33921V192.062Z" fill="#EE7A3A"/>
<path d="M118.17 126.176H78.0608V111.264H95.188V100.757L87.2672 108.672H71.9537V126.176H49.1098V108.672H31.707V93.0948H95.188V55.2191H118.17V126.176ZM146.593 169.374H44.0359V129.41H69.4742V134.847H121.154V129.41H146.593V169.374ZM121.154 154.187V149.002H69.4742V154.187H121.154ZM146.593 126.176H123.358V54.8291H146.593V126.176Z" fill="#EE7A3A"/>
<path d="M178.367 34.1822C187.218 34.1822 194.392 27.013 194.392 18.1693C194.392 9.32568 187.218 2.15649 178.367 2.15649C169.517 2.15649 162.342 9.32568 162.342 18.1693C162.342 27.013 169.517 34.1822 178.367 34.1822Z" fill="white"/>
<path d="M178.367 36.3386C168.334 36.3386 160.184 28.1945 160.184 18.1693C160.184 8.14407 168.334 0 178.367 0C188.4 0 196.55 8.14407 196.55 18.1693C196.55 28.1945 188.4 36.3386 178.367 36.3386ZM178.367 4.33586C170.722 4.33586 164.523 10.5529 164.523 18.1693C164.523 25.7857 170.745 32.0028 178.367 32.0028C185.989 32.0028 192.211 25.7857 192.211 18.1693C192.211 10.5529 185.989 4.33586 178.367 4.33586Z" fill="#EE7A3A"/>
<path d="M171.319 20.4865C170.148 20.4865 169.184 19.546 169.161 18.376C169.138 17.183 170.079 16.1966 171.273 16.1507L185.347 15.8295C186.54 15.8066 187.528 16.7471 187.574 17.9401C187.596 19.133 186.655 20.1195 185.461 20.1654L171.388 20.4865H171.342H171.319Z" fill="#EE7A3A"/>
<path d="M178.527 27.3454C177.356 27.3454 176.392 26.4048 176.369 25.2348L176.047 11.172C176.024 9.97905 176.966 8.99258 178.159 8.9467C179.353 8.92376 180.341 9.86434 180.386 11.0573L180.708 25.1201C180.731 26.3131 179.79 27.2995 178.596 27.3454H178.55H178.527Z" fill="#EE7A3A"/>
<path d="M62.6772 95.3207C76.9166 95.3207 88.4599 83.7863 88.4599 69.5579C88.4599 55.3295 76.9166 43.7952 62.6772 43.7952C48.4378 43.7952 36.8945 55.3295 36.8945 69.5579C36.8945 83.7863 48.4378 95.3207 62.6772 95.3207Z" fill="white"/>
<path d="M62.7239 43.7946C75.8793 43.7946 87.1291 53.8198 88.3688 67.1715C89.6775 81.3491 79.2542 93.8978 65.0886 95.2055C64.2851 95.2743 63.4586 95.3202 62.678 95.3202C49.5226 95.3202 38.2728 85.2949 37.033 71.9432C35.7244 57.7657 46.1477 45.2169 60.3132 43.9093C61.1168 43.8405 61.9433 43.7946 62.7239 43.7946ZM62.7239 39.4587C61.7826 39.4587 60.8413 39.5046 59.9 39.5964C51.8873 40.3305 44.6553 44.1617 39.5126 50.3557C34.3698 56.5498 31.9591 64.3498 32.6938 72.3562C33.3826 79.8808 36.8494 86.7861 42.4513 91.8561C48.0073 96.8802 55.1705 99.656 62.655 99.656C63.5963 99.656 64.5376 99.6102 65.4789 99.5184C82.0092 97.9813 94.2233 83.2991 92.6851 66.7586C91.9963 59.2568 88.5295 52.3287 82.9276 47.2587C77.3716 42.2346 70.2084 39.4587 62.7239 39.4587Z" fill="#EE7A3A"/>
<path d="M62.6783 95.3207C71.1483 95.3207 78.0147 83.7863 78.0147 69.5579C78.0147 55.3295 71.1483 43.7952 62.6783 43.7952C54.2082 43.7952 47.3418 55.3295 47.3418 69.5579C47.3418 83.7863 54.2082 95.3207 62.6783 95.3207Z" fill="white"/>
<path d="M62.6788 96.605C53.5182 96.605 46.0566 84.4692 46.0566 69.5345C46.0566 54.5999 53.5182 42.4641 62.6788 42.4641C71.8393 42.4641 79.3009 54.5999 79.3009 69.5345C79.3009 84.4692 71.8393 96.605 62.6788 96.605ZM62.6788 45.0794C54.9417 45.0794 48.651 56.0452 48.651 69.5345C48.651 83.0239 54.9417 93.9897 62.6788 93.9897C70.4159 93.9897 76.7066 83.0239 76.7066 69.5345C76.7066 56.0452 70.4159 45.0794 62.6788 45.0794Z" fill="#EE7A3A"/>
<path d="M62.6778 96.605C61.9661 96.605 61.3691 96.0314 61.3691 95.2973V43.7717C61.3691 43.0606 61.9431 42.4641 62.6778 42.4641C63.4125 42.4641 63.9864 43.0376 63.9864 43.7717V95.2973C63.9864 96.0085 63.4125 96.605 62.6778 96.605Z" fill="#EE7A3A"/>
<path d="M88.46 70.8421H36.8946C36.1829 70.8421 35.5859 70.2686 35.5859 69.5344C35.5859 68.8003 36.1599 68.2268 36.8946 68.2268H88.46C89.1717 68.2268 89.7686 68.8003 89.7686 69.5344C89.7686 70.2686 89.1947 70.8421 88.46 70.8421Z" fill="#EE7A3A"/>
<path d="M81.3899 88.5979C81.1143 88.5979 80.8388 88.5061 80.6093 88.3455C75.9945 84.8585 69.4513 82.8626 62.7014 82.8626C55.9515 82.8626 49.4083 84.8585 44.7936 88.3455C44.2196 88.7814 43.3931 88.6667 42.9798 88.0931C42.5436 87.5196 42.6584 86.7167 43.2324 86.2808C48.3752 82.4038 55.2857 80.2703 62.7014 80.2703C70.1171 80.2703 77.0277 82.4038 82.1705 86.2808C82.7444 86.7167 82.8592 87.5196 82.423 88.0931C82.1705 88.4373 81.7802 88.6208 81.3899 88.6208V88.5979Z" fill="#EE7A3A"/>
<path d="M62.678 58.8439C55.2623 58.8439 48.3517 56.7104 43.209 52.8334C42.635 52.3975 42.5202 51.5946 42.9564 51.0211C43.3926 50.4475 44.1962 50.3328 44.7702 50.7687C49.4078 54.2557 55.9281 56.2516 62.678 56.2516C69.4279 56.2516 75.9711 54.2557 80.5858 50.7687C81.1598 50.3328 81.9634 50.4475 82.3996 51.0211C82.8358 51.5946 82.721 52.3975 82.147 52.8334C77.0043 56.7104 70.0937 58.8439 62.678 58.8439Z" fill="#EE7A3A"/>
</svg>
