<svg width="20" height="25" viewBox="0 0 20 25" fill="none" xmlns="http://www.w3.org/2000/svg">
<path d="M1.0918 1.08276L4.35194 23.2209L9.88501 16.3271L18.6323 14.9965L1.0918 1.08276Z" fill="white"/>
<path d="M4.35183 24.299C4.25999 24.299 4.15668 24.2875 4.06485 24.2646C3.65159 24.1499 3.34164 23.8058 3.27277 23.3814L0.0126247 1.24328C-0.0562516 0.8074 0.161864 0.371513 0.540684 0.142102C0.919504 -0.0758377 1.40163 -0.041424 1.7575 0.233868L19.298 14.1476C19.6309 14.4114 19.7801 14.8588 19.6768 15.2717C19.5735 15.6847 19.2176 15.9944 18.7929 16.0632L10.4703 17.3364L5.20131 23.8976C4.99468 24.1614 4.68473 24.299 4.35183 24.299ZM2.56105 3.62915L5.06356 20.6055L9.04689 15.6503C9.21908 15.4438 9.46016 15.2947 9.72419 15.2603L16.0034 14.2967L2.56105 3.62915Z" fill="#EE7A3A"/>
<path d="M1.0918 1.08276L4.35194 23.2209L9.88501 16.3271L18.6323 14.9965L1.0918 1.08276Z" fill="white"/>
<path d="M4.35183 24.299C4.25999 24.299 4.15668 24.2875 4.06485 24.2646C3.65159 24.1499 3.34164 23.8058 3.27277 23.3814L0.0126247 1.24328C-0.0562516 0.8074 0.161864 0.371513 0.540684 0.142102C0.919504 -0.0758377 1.40163 -0.041424 1.7575 0.233868L19.298 14.1476C19.6309 14.4114 19.7801 14.8588 19.6768 15.2717C19.5735 15.6847 19.2176 15.9944 18.7929 16.0632L10.4703 17.3364L5.20131 23.8976C4.99468 24.1614 4.68473 24.299 4.35183 24.299ZM2.56105 3.62915L5.06356 20.6055L9.04689 15.6503C9.21908 15.4438 9.46016 15.2947 9.72419 15.2603L16.0034 14.2967L2.56105 3.62915Z" fill="#EE7A3A"/>
</svg>
