<svg width="227" height="89" viewBox="0 0 227 89" fill="none" xmlns="http://www.w3.org/2000/svg">
<path d="M215.101 1.06677H1.0791V75.0516H215.101V1.06677Z" fill="white"/>
<path d="M215.101 76.1413H1.07906C0.482134 76.1413 0 75.6596 0 75.0631V1.07823C0 0.481765 0.482134 0 1.07906 0H215.101C215.698 0 216.18 0.481765 216.18 1.07823V75.0631C216.18 75.6596 215.698 76.1413 215.101 76.1413ZM2.15812 73.9734H214.022V2.15646H2.15812V73.9734Z" fill="#EE7A3A"/>
<path d="M61.2195 47.9009H51.7834V34.4919H44.4252C43.8512 35.0654 43.1854 35.5128 42.4507 35.8339C39.1446 37.4054 35.8615 38.908 32.5899 40.3533C29.3183 41.7986 26.0122 43.2095 22.6832 44.5859L19.5034 37.8069C21.1105 37.1645 22.6832 36.5336 24.2214 35.9028C25.7597 35.2833 27.2979 34.6295 28.8362 33.9528H20.9957V27.2655H36.9176V24.9599H21.7649V17.8482H46.3537V26.4052H51.7949V17.2173H61.231V47.8894L61.2195 47.9009ZM61.4606 59.6811H24.8413V45.0677H34.2659V51.8009H61.4491V59.6811H61.4606Z" fill="#EE7A3A"/>
<path d="M107.172 59.6809H97.7356V52.3742L93.649 56.4577H65.9836V48.3825H69.5422V25.9805H66.2247V17.9512H94.3722V25.9805H91.2957V48.3825H97.7471V40.6399H92.9831V32.037H97.7471V17.2285H107.183V59.6809H107.172ZM82.1466 48.3825V25.9805H78.6798V48.3825H82.1466Z" fill="#EE7A3A"/>
<path d="M139.36 43.3354H112.659V26.9899H126.664V24.3402H112.659V17.4694H136.088V33.4822H122.083V36.1778H139.36V43.3469V43.3354ZM152.882 59.6809H115.884V45.2051H125.366V52.466H152.882V59.6809ZM152.641 48.1416H143.205V33.0922H137.764V25.017H143.205V17.2285H152.641V48.1416Z" fill="#EE7A3A"/>
<path d="M194.587 46.4554C191.889 44.6889 189.238 42.8766 186.62 40.9954C184.003 39.1257 181.34 37.0152 178.608 34.6752C175.876 37.0152 173.201 39.1257 170.572 40.9954C167.943 42.8651 165.292 44.6889 162.628 46.4554L157.382 39.6304C158.473 38.8275 159.621 37.9672 160.826 37.0611C162.031 36.1434 163.237 35.2028 164.454 34.2278C165.67 33.2528 166.864 32.2434 168.035 31.2226C169.206 30.2017 170.308 29.1693 171.33 28.1485C172.099 27.3799 172.627 26.6458 172.914 25.9576C173.201 25.2694 173.35 24.4091 173.35 23.3882V17.9512H183.842V23.3882C183.842 24.4091 183.992 25.2694 184.279 25.9576C184.566 26.6458 185.094 27.3799 185.863 28.1485C186.861 29.1693 187.952 30.2017 189.134 31.2226C190.317 32.2434 191.522 33.2528 192.739 34.2278C193.956 35.2028 195.172 36.1549 196.366 37.0611C197.572 37.9787 198.72 38.8275 199.81 39.6304L194.564 46.4554H194.587ZM199.833 58.1324H157.394V50.0571H199.833V58.1324Z" fill="#EE7A3A"/>
<path d="M207.754 65.0381L211.014 87.1762L216.547 80.2824L225.294 78.9518L207.754 65.0381Z" fill="white"/>
<path d="M211.014 88.2541C210.922 88.2541 210.819 88.2426 210.727 88.2197C210.314 88.105 210.004 87.7609 209.935 87.3364L206.675 65.1984C206.606 64.7625 206.824 64.3266 207.203 64.0972C207.582 63.8792 208.064 63.9137 208.42 64.1889L225.96 78.1027C226.293 78.3665 226.442 78.8139 226.339 79.2268C226.236 79.6397 225.88 79.9494 225.455 80.0183L217.132 81.2915L211.863 87.8526C211.657 88.1165 211.347 88.2541 211.014 88.2541ZM209.223 67.5842L211.726 84.5606L215.709 79.6053C215.881 79.3989 216.122 79.2497 216.386 79.2153L222.666 78.2518L209.223 67.5842Z" fill="#EE7A3A"/>
</svg>
