<svg width="112" height="112" viewBox="0 0 112 112" fill="none" xmlns="http://www.w3.org/2000/svg">
<path d="M109.723 95.784C109.7 103.63 103.294 109.962 95.4422 109.939L16.1656 109.617C8.31372 109.572 1.9771 103.194 2.00006 95.3481L2.22965 41.2532L2.34444 17.2339V16.1327C2.3674 10.168 6.06376 5.07512 11.2754 3.01043C12.9284 2.34514 14.7422 1.97807 16.6248 2.00101L95.9244 2.32222C103.776 2.3681 110.113 8.74572 110.09 16.5916L109.746 95.807L109.723 95.784Z" fill="white" stroke="#E3773B" stroke-width="3.02" stroke-miterlimit="10"/>
<path d="M89.1297 54.4671C89.0608 68.6676 74.2065 80.1152 55.9313 80.0464C50.536 80.0464 45.4621 78.9911 40.9622 77.2017L26.7278 84.084L31.2047 71.283C26.039 66.7177 22.9166 60.7301 22.9396 54.1919C22.9855 39.9914 37.8628 28.5438 56.138 28.6126C74.4131 28.6814 89.1756 40.2666 89.1067 54.4671H89.1297Z" fill="#EE7A3A"/>
</svg>
