<svg width="56" height="56" viewBox="0 0 56 56" fill="none" xmlns="http://www.w3.org/2000/svg">
<path d="M54.8613 47.892C54.8498 51.8149 51.6471 54.9808 47.7211 54.9693L8.08281 54.8087C4.15686 54.7858 0.988552 51.597 1.00003 47.6741L1.11482 20.6266L1.17222 8.61695V8.06635C1.1837 5.08402 3.03188 2.53756 5.6377 1.50521C6.46422 1.17257 7.37109 0.989037 8.3124 1.00051L47.9622 1.16111C51.8881 1.18405 55.0564 4.37286 55.045 8.29578L54.8728 47.9035L54.8613 47.892Z" fill="white" stroke="#E3773B" stroke-width="1.51" stroke-miterlimit="10"/>
<path d="M44.5644 27.2336C44.5299 34.3338 37.1028 40.0576 27.9652 40.0232C25.2675 40.0232 22.7306 39.4956 20.4806 38.6009L13.3634 42.042L15.6019 35.6415C13.019 33.3588 11.4578 30.365 11.4693 27.0959C11.4923 19.9957 18.9309 14.2719 28.0685 14.3063C37.2061 14.3407 44.5873 20.1333 44.5529 27.2336H44.5644Z" fill="#EE7A3A"/>
</svg>
