<svg width="56" height="56" viewBox="0 0 56 56" fill="none" xmlns="http://www.w3.org/2000/svg">
<path d="M54.8613 47.892C54.8498 51.8149 51.6471 54.9808 47.7211 54.9693L8.08282 54.8087C4.15687 54.7858 0.988552 51.597 1.00003 47.6741L1.11483 20.6266L1.17222 8.61695V8.06635C1.1837 5.08402 3.03188 2.53756 5.6377 1.50521C6.46422 1.17257 7.37109 0.989037 8.3124 1.00051L47.9622 1.16111C51.8881 1.18405 55.0564 4.37286 55.045 8.29578L54.8728 47.9035L54.8613 47.892Z" fill="white" stroke="#E3773B" stroke-width="1.51" stroke-miterlimit="10"/>
<path d="M28.4242 40.4819C25.0722 40.4819 21.7317 40.4819 18.3798 40.459C16.4742 40.459 14.7408 39.8969 13.237 38.7155C11.4692 37.3275 10.4819 35.5037 10.2064 33.267C9.79318 29.8946 11.6758 26.5108 14.8556 25.077C15.3377 24.8591 15.5099 24.6297 15.5329 24.102C15.6706 21.1426 16.9563 18.7682 19.3555 17.0476C22.8567 14.5471 27.7929 15.0059 30.8234 18.08C31.2826 18.5503 31.7188 19.032 32.0402 19.5941C32.178 19.835 32.3043 19.8579 32.5453 19.7203C35.8284 17.8391 40.1676 19.858 40.5579 24.0676C40.6153 24.71 40.512 25.3408 40.3169 25.9488C40.225 26.247 40.3169 26.3388 40.5809 26.4191C43.3933 27.2564 45.1152 29.1376 45.7351 31.9938C46.4124 35.1252 44.6331 38.4975 41.6714 39.8281C40.6498 40.2869 39.5707 40.4934 38.4572 40.4934C35.1052 40.4934 31.7647 40.4934 28.4127 40.4819H28.4242Z" fill="#F6B35A"/>
</svg>
