<svg width="112" height="112" viewBox="0 0 112 112" fill="none" xmlns="http://www.w3.org/2000/svg">
<path d="M109.723 95.784C109.7 103.63 103.294 109.962 95.4422 109.939L16.1656 109.617C8.31374 109.572 1.9771 103.194 2.00006 95.3481L2.22966 41.2532L2.34445 17.2339V16.1327C2.36741 10.168 6.06377 5.07512 11.2754 3.01043C12.9284 2.34514 14.7422 1.97807 16.6248 2.00101L95.9244 2.32222C103.776 2.3681 110.113 8.74572 110.09 16.5916L109.746 95.807L109.723 95.784Z" fill="white" stroke="#E3773B" stroke-width="3.02" stroke-miterlimit="10"/>
<path d="M56.8475 80.9639C50.1435 80.9639 43.4625 80.9638 36.7586 80.918C32.9474 80.918 29.4806 79.7939 26.473 77.4309C22.9374 74.6551 20.9629 71.0075 20.4119 66.534C19.5854 59.7893 23.3506 53.0216 29.7102 50.154C30.6745 49.7181 31.0189 49.2594 31.0648 48.2041C31.3403 42.2853 33.9117 37.5364 38.71 34.0953C45.7125 29.0941 55.5847 30.0118 61.6458 36.16C62.5642 37.1006 63.4366 38.0641 64.0795 39.1882C64.355 39.67 64.6075 39.7159 65.0897 39.4406C71.6559 35.6783 80.3343 39.7159 81.1149 48.1353C81.2297 49.42 81.023 50.6817 80.6327 51.8976C80.4491 52.494 80.6327 52.6776 81.1608 52.8382C86.7857 54.5128 90.2295 58.2752 91.4693 63.9875C92.8238 70.2504 89.2652 76.9951 83.3419 79.6562C81.2985 80.5739 79.1404 80.9868 76.9134 80.9868C70.2095 80.9868 63.5285 80.9868 56.8245 80.9639H56.8475Z" fill="#F6B35A"/>
</svg>
