<svg width="56" height="56" viewBox="0 0 56 56" fill="none" xmlns="http://www.w3.org/2000/svg">
<path d="M54.8613 47.892C54.8498 51.8149 51.6471 54.9808 47.7211 54.9693L8.08281 54.8087C4.15686 54.7858 0.988552 51.597 1.00003 47.6741L1.11483 20.6266L1.17222 8.61695V8.06635C1.1837 5.08402 3.03189 2.53756 5.63771 1.50521C6.46423 1.17257 7.37108 0.989037 8.31239 1.00051L47.9622 1.16111C51.8881 1.18405 55.0564 4.37286 55.045 8.29578L54.8728 47.9035L54.8613 47.892Z" fill="white" stroke="#E3773B" stroke-width="1.51" stroke-miterlimit="10"/>
<path d="M40.1792 40.5277H40.1677C39.6052 40.7686 38.9624 40.6539 38.5262 40.241L28.0111 30.2387L17.473 40.2066C16.8646 40.7801 15.9003 40.7572 15.3263 40.1492C14.7524 39.5413 14.7753 38.5778 15.3837 38.0042L25.807 28.1396L15.4067 18.252C14.7983 17.6785 14.7753 16.715 15.3493 16.107C15.9233 15.4991 16.8875 15.4761 17.4959 16.0496L28.0111 26.0519L38.5491 16.084C38.9854 15.6711 39.6397 15.5564 40.1907 15.7973C40.7417 16.0382 41.109 16.5888 41.109 17.1967L41.0746 39.1513C41.0746 39.7478 40.7187 40.2983 40.1677 40.5392L40.1792 40.5277ZM30.2151 28.1511L38.0555 35.6069L38.0785 20.7181L30.2151 28.1511Z" fill="#EE7A3A"/>
</svg>
