<svg width="77" height="77" viewBox="0 0 77 77" fill="none" xmlns="http://www.w3.org/2000/svg">
<path d="M38.331 75.6043C58.9483 75.6043 75.6619 58.9035 75.6619 38.3021C75.6619 17.7007 58.9483 1 38.331 1C17.7136 1 1 17.7007 1 38.3021C1 58.9035 17.7136 75.6043 38.331 75.6043Z" fill="white" stroke="#E3773B" stroke-width="1.51" stroke-miterlimit="10"/>
<path d="M38.3309 67.9191C54.7005 67.9191 67.9707 54.6591 67.9707 38.3022C67.9707 21.9452 54.7005 8.6853 38.3309 8.6853C21.9613 8.6853 8.69116 21.9452 8.69116 38.3022C8.69116 54.6591 21.9613 67.9191 38.3309 67.9191Z" fill="#3C78BD"/>
<path d="M38.3307 68.0681C21.9037 68.0681 8.54175 54.7164 8.54175 38.3021C8.54175 21.8878 21.9037 8.53613 38.3307 8.53613C54.7577 8.53613 68.1197 21.8878 68.1197 38.3021C68.1197 54.7164 54.7577 68.0681 38.3307 68.0681ZM38.3307 8.8229C22.0645 8.8229 8.84021 22.0484 8.84021 38.2906C8.84021 54.5329 22.0759 67.7584 38.3307 67.7584C54.5855 67.7584 67.8213 54.5329 67.8213 38.2906C67.8213 22.0484 54.5855 8.8229 38.3307 8.8229Z" fill="#3C78BD"/>
<path d="M38.3309 67.9191C54.7005 67.9191 67.9707 54.6591 67.9707 38.3022C67.9707 21.9452 54.7005 8.6853 38.3309 8.6853C21.9613 8.6853 8.69116 21.9452 8.69116 38.3022C8.69116 54.6591 21.9613 67.9191 38.3309 67.9191Z" fill="#EE7A3A"/>
<path d="M38.3307 68.0681C21.9037 68.0681 8.54175 54.7164 8.54175 38.3021C8.54175 21.8878 21.9037 8.53613 38.3307 8.53613C54.7577 8.53613 68.1197 21.8878 68.1197 38.3021C68.1197 54.7164 54.7577 68.0681 38.3307 68.0681ZM38.3307 8.8229C22.0645 8.8229 8.84021 22.0484 8.84021 38.2906C8.84021 54.5329 22.0759 67.7584 38.3307 67.7584C54.5855 67.7584 67.8213 54.5329 67.8213 38.2906C67.8213 22.0484 54.5855 8.8229 38.3307 8.8229Z" fill="#EE7A3A"/>
<path d="M53.0359 23.6084L35.3691 35.3428L41.281 41.2501L53.0359 23.6084Z" fill="#F6B35A"/>
<path d="M23.6257 52.9842L41.281 41.2498L35.3691 35.3425L23.6257 52.9842Z" fill="white"/>
</svg>
