<svg width="77" height="77" viewBox="0 0 77 77" fill="none" xmlns="http://www.w3.org/2000/svg">
<path d="M38.3309 75.6043C58.9483 75.6043 75.6619 58.9036 75.6619 38.3022C75.6619 17.7008 58.9483 1 38.3309 1C17.7136 1 1 17.7008 1 38.3022C1 58.9036 17.7136 75.6043 38.3309 75.6043Z" fill="white" stroke="#E3773B" stroke-width="1.51" stroke-miterlimit="10"/>
<path d="M64.8139 37.8203C64.8139 37.8203 64.8139 37.7974 64.8139 37.7859C64.8139 37.7744 64.8139 37.7515 64.8139 37.74C64.791 36.9485 64.745 36.1456 64.6532 35.3427C63.8611 28.3112 60.3714 22.0139 54.8383 17.6093C49.9596 13.7208 43.9903 11.7134 37.8259 11.8396C37.8259 11.8396 37.8144 11.8396 37.8029 11.8396C37.78 11.8396 37.757 11.8396 37.7341 11.8396C36.942 11.8625 36.1499 11.9084 35.3463 12.0002C28.7916 12.7457 23.0634 15.8313 18.8964 20.3278C18.8046 20.3966 18.7242 20.4769 18.6553 20.5801C18.6553 20.5916 18.6438 20.6031 18.6324 20.6145C14.2702 25.4666 11.6988 31.9015 11.8366 38.7953C11.8366 38.8068 11.8366 38.8183 11.8366 38.8297C11.8366 38.8527 11.8366 38.8756 11.8366 38.8985C11.8595 39.69 11.9054 40.4815 11.9973 41.2844C12.686 47.3523 15.3837 52.709 19.3556 56.7811C19.3556 56.7811 19.3556 56.7925 19.367 56.804C19.4244 56.8843 19.4933 56.9417 19.5622 56.999C22.0991 59.5455 25.1526 61.5643 28.5161 62.9063C32.4421 64.4778 36.8042 65.1316 41.2927 64.6269C47.8474 63.8813 53.5756 60.7958 57.7426 56.2993C57.8344 56.2305 57.9148 56.1387 57.9952 56.047C57.9952 56.0355 58.0066 56.024 58.0181 56.0126C62.3803 51.1605 64.9517 44.7256 64.8139 37.8318V37.8203ZM20.0099 23.1725C21.2267 23.9639 22.5353 24.6636 23.9129 25.2601C22.742 28.8159 22.0647 32.888 22.0188 37.2697L14.5572 37.4188C14.7523 32.085 16.7497 27.1069 20.0099 23.1725ZM39.9381 51.3555C43.1753 51.4243 46.3436 51.9635 49.2364 52.904C47.1012 57.8134 43.8755 61.1972 40.1447 61.9199L39.9381 51.3555ZM39.8807 48.6485L39.7085 39.6327L51.9226 39.3918C51.8767 43.372 51.2568 47.1114 50.2007 50.3576C46.9979 49.2908 43.5082 48.7058 39.8807 48.6485ZM39.6511 36.9256L39.4789 27.9098C43.0949 27.7033 46.5617 26.9807 49.7185 25.7877C50.9009 28.988 51.67 32.7045 51.8767 36.6847L39.6626 36.9256H39.6511ZM36.7124 25.2486C33.4752 25.1798 30.3069 24.6407 27.4141 23.7001C29.5493 18.7907 32.775 15.4069 36.5058 14.6843L36.7124 25.2486ZM39.4215 25.1913L39.2149 14.6384C39.8463 14.7302 40.4661 14.9022 41.0631 15.1431C44.0592 16.3475 46.7109 19.261 48.6509 23.2757C45.7926 24.3425 42.6587 24.9963 39.4215 25.1913ZM24.8771 22.7137C23.821 22.2548 22.8223 21.7272 21.881 21.1422C23.821 19.2725 26.094 17.7354 28.6079 16.5998C27.1615 18.2745 25.8988 20.3392 24.8771 22.7022V22.7137ZM26.4613 26.2351C29.664 27.3018 33.1538 27.8869 36.7813 27.9442L36.9649 36.9715L24.7509 37.2124C24.7968 33.2206 25.4167 29.4927 26.4728 26.2351H26.4613ZM37.0109 39.6671L37.183 48.6829C33.567 48.8894 30.1003 49.612 26.9434 50.805C25.7611 47.6047 24.9919 43.8882 24.7853 39.908L36.9994 39.6671H37.0109ZM37.2404 51.39L37.4471 61.9428C36.8157 61.8511 36.1958 61.679 35.5989 61.4381C32.6028 60.2337 29.951 57.3202 28.011 53.3055C30.8694 52.2388 34.0033 51.585 37.2404 51.39ZM51.7848 53.8676C52.8409 54.3264 53.8396 54.8541 54.7809 55.439C52.8409 57.3087 50.568 58.8458 48.054 59.9814C49.5119 58.3067 50.7631 56.242 51.7848 53.879V53.8676ZM52.7491 51.3211C53.92 47.7652 54.5973 43.6932 54.6432 39.3229L62.1048 39.1738C61.9096 44.5076 59.9122 49.4744 56.6521 53.4202C55.4353 52.6288 54.1151 51.929 52.7376 51.3211H52.7491ZM62.0474 36.4668L54.5858 36.6159C54.3677 32.2457 53.5297 28.1965 52.221 24.698C53.5756 24.0442 54.8613 23.2872 56.0551 22.4383C59.3382 26.086 61.4045 30.6513 61.967 35.618C62.0015 35.9048 62.0244 36.18 62.0359 36.4668H62.0474ZM54.1037 20.4884C53.1853 21.1078 52.1981 21.6698 51.1649 22.1745C50.0514 19.8346 48.6969 17.8157 47.1816 16.1984C49.3053 17.0472 51.3256 18.2172 53.1623 19.6854C53.4838 19.9378 53.8052 20.2131 54.1037 20.4769V20.4884ZM14.6261 40.1029L22.0877 39.9538C22.3058 44.3241 23.1438 48.3732 24.4524 51.8717C23.0978 52.5255 21.8236 53.2826 20.6298 54.1199C17.4385 50.5755 15.2804 46.0332 14.7064 40.9518C14.672 40.665 14.649 40.3897 14.6375 40.1029H14.6261ZM22.5813 56.0699C23.4996 55.4505 24.4754 54.8885 25.5085 54.3837C26.622 56.7008 27.9536 58.7196 29.4689 60.3369C26.932 59.3161 24.6016 57.8708 22.5698 56.0699H22.5813Z" fill="#F6B35A"/>
</svg>
