<svg width="153" height="153" viewBox="0 0 153 153" fill="none" xmlns="http://www.w3.org/2000/svg">
<path d="M76.6619 151.209C117.897 151.209 151.324 117.807 151.324 76.6043C151.324 35.4015 117.897 2 76.6619 2C35.4273 2 2 35.4015 2 76.6043C2 117.807 35.4273 151.209 76.6619 151.209Z" fill="white" stroke="#E3773B" stroke-width="3.02" stroke-miterlimit="10"/>
<path d="M129.629 75.6404C129.629 75.6404 129.629 75.5945 129.629 75.5716C129.629 75.5486 129.629 75.5027 129.629 75.4798C129.583 73.8968 129.492 72.291 129.308 70.6851C127.724 56.6222 120.744 44.0276 109.678 35.2183C99.9207 27.4413 87.9821 23.4266 75.6532 23.6789C75.6532 23.6789 75.6303 23.6789 75.6073 23.6789C75.5614 23.6789 75.5155 23.6789 75.4696 23.6789C73.8854 23.7248 72.3013 23.8165 70.6941 24.0001C57.5847 25.4912 46.1283 31.6624 37.7942 40.6553C37.6106 40.7929 37.4498 40.9535 37.3121 41.16C37.3121 41.1829 37.2891 41.2059 37.2662 41.2288C28.5419 50.9329 23.3991 63.8028 23.6746 77.5904C23.6746 77.6133 23.6746 77.6363 23.6746 77.6592C23.6746 77.7051 23.6746 77.751 23.6746 77.7968C23.7205 79.3798 23.8124 80.9627 23.996 82.5685C25.3735 94.7044 30.7688 105.418 38.7126 113.562C38.7126 113.562 38.7126 113.585 38.7355 113.608C38.8503 113.768 38.9881 113.883 39.1258 113.998C44.1997 119.091 50.3068 123.128 57.0337 125.812C64.8856 128.955 73.6099 130.263 82.5868 129.254C95.6962 127.762 107.153 121.591 115.487 112.598C115.67 112.461 115.831 112.277 115.992 112.094C115.992 112.071 116.015 112.048 116.038 112.025C124.762 102.321 129.905 89.4509 129.629 75.6633V75.6404ZM40.0212 46.3447C42.4549 47.9276 45.0722 49.327 47.8272 50.5199C45.4854 57.6316 44.1308 65.7757 44.039 74.5392L29.1158 74.8374C29.5061 64.1698 33.5009 54.2135 40.0212 46.3447ZM79.8776 102.711C86.352 102.848 92.6886 103.927 98.4742 105.808C94.2039 115.627 87.7525 122.394 80.2909 123.84L79.8776 102.711ZM79.7629 97.2967L79.4185 79.2651L103.847 78.7833C103.755 86.7438 102.515 94.2226 100.403 100.715C93.9973 98.5814 87.0178 97.4114 79.7629 97.2967ZM79.3037 73.851L78.9593 55.8194C86.1913 55.4064 93.1249 53.9611 99.4385 51.5752C101.803 57.9758 103.342 65.4087 103.755 73.3692L79.3266 73.851H79.3037ZM73.4262 50.497C66.9519 50.3594 60.6153 49.2811 54.8296 47.4C59.1 37.5812 65.5514 30.8136 73.013 29.3683L73.4262 50.497ZM78.8445 50.3823L78.4312 29.2766C79.694 29.4601 80.9338 29.8042 82.1276 30.286C88.1198 32.6948 93.4233 38.5218 97.3034 46.5512C91.5866 48.6847 85.3189 49.9923 78.8445 50.3823ZM49.7558 45.4271C47.6436 44.5094 45.6461 43.4541 43.7635 42.2841C47.6435 38.5447 52.1894 35.4706 57.2174 33.1994C54.3246 36.5488 51.7991 40.6782 49.7558 45.4041V45.4271ZM52.9241 52.4699C59.3296 54.6034 66.309 55.7735 73.564 55.8882L73.9313 73.9428L49.5032 74.4245C49.595 66.441 50.8348 58.9852 52.947 52.4699H52.9241ZM74.0232 79.3339L74.3675 97.3655C67.1355 97.7785 60.202 99.2238 53.8883 101.61C51.5236 95.2091 49.9853 87.7762 49.5721 79.8157L74.0002 79.3339H74.0232ZM74.4823 102.78L74.8956 123.885C73.6329 123.702 72.3931 123.358 71.1992 122.876C65.207 120.467 59.9035 114.64 56.0235 106.611C61.7402 104.477 68.008 103.17 74.4823 102.78ZM103.571 107.735C105.683 108.653 107.681 109.708 109.563 110.878C105.683 114.617 101.137 117.691 96.1095 119.962C99.0253 116.613 101.528 112.484 103.571 107.758V107.735ZM105.5 102.642C107.841 95.5302 109.196 87.3862 109.288 78.6456L124.211 78.3474C123.821 89.015 119.826 98.9485 113.306 106.84C110.872 105.257 108.232 103.858 105.477 102.642H105.5ZM124.096 72.9333L109.173 73.2316C108.737 64.4911 107.061 56.3928 104.444 49.3958C107.153 48.0882 109.724 46.5741 112.112 44.8764C118.678 52.1717 122.811 61.3023 123.936 71.2357C124.004 71.8093 124.05 72.3598 124.073 72.9333H124.096ZM108.209 40.9765C106.372 42.2153 104.398 43.3394 102.331 44.3488C100.104 39.6689 97.3952 35.6312 94.3646 32.3965C98.612 34.0941 102.653 36.4341 106.326 39.3706C106.969 39.8753 107.612 40.4259 108.209 40.9535V40.9765ZM29.2536 80.2056L44.1768 79.9074C44.613 88.648 46.289 96.7461 48.9063 103.743C46.1971 105.051 43.6487 106.565 41.261 108.24C34.8785 101.151 30.5622 92.0662 29.4143 81.9033C29.3454 81.3298 29.2995 80.7791 29.2765 80.2056H29.2536ZM45.164 112.14C47.0007 110.901 48.9522 109.777 51.0185 108.767C53.2455 113.401 55.9087 117.439 58.9393 120.674C53.8654 118.632 49.2047 115.741 45.141 112.14H45.164Z" fill="#F6B35A"/>
</svg>
