<svg width="77" height="77" viewBox="0 0 77 77" fill="none" xmlns="http://www.w3.org/2000/svg">
<path d="M38.3309 75.6043C58.9483 75.6043 75.6619 58.9036 75.6619 38.3022C75.6619 17.7008 58.9483 1 38.3309 1C17.7136 1 1 17.7008 1 38.3022C1 58.9036 17.7136 75.6043 38.3309 75.6043Z" fill="white" stroke="#E3773B" stroke-width="1.51" stroke-miterlimit="10"/>
<path d="M61.2321 25.1224C64.8596 31.3509 65.9616 40.1488 61.4043 46.2167C58.8674 49.589 54.5971 51.3096 50.43 50.7475C42.1304 49.6464 40.5233 43.8538 40.5233 43.8538C42.7274 42.9935 43.8638 40.6994 44.1164 39.8964C44.3689 39.0935 44.587 38.2562 44.7018 37.4074C44.7592 36.96 44.8051 36.5126 44.8051 36.0538C44.9084 30.7544 40.8907 25.7648 36.4137 23.3101C30.1574 19.8804 21.766 20.236 16.1182 24.7095C22.2137 14.8448 34.4507 10.0043 45.999 13.6978C52.1175 15.6592 57.949 19.4789 61.2321 25.111V25.1224Z" fill="#F3EBE0"/>
<path d="M55.837 57.1138C49.8907 62.6885 41.4648 65.3152 33.1078 63.652C24.4065 59.4882 21.307 51.5277 22.409 45.3221C22.7075 43.6474 23.2011 42.0072 23.8899 40.4472C25.4396 36.9601 27.988 33.9778 31.4892 32.349C32.6831 31.7984 33.9573 31.4199 35.2545 31.2822C31.4433 33.8975 30.5594 40.5963 32.4535 45.0927C35.243 51.7456 42.3028 55.9782 49.2708 56.9188C51.4404 57.2056 53.6674 57.24 55.8485 57.1253L55.837 57.1138Z" fill="#EE7A3A"/>
<path d="M44.8053 36.0538C44.8053 36.5126 44.7594 36.96 44.702 37.4073C44.0591 35.7556 42.9456 34.1956 41.5796 33.06C39.7544 31.5344 37.4929 31.0412 35.2545 31.2821C33.9573 31.4197 32.6831 31.7982 31.4892 32.3488C27.988 33.9776 25.4396 36.9599 23.8899 40.447C23.2011 42.007 22.7075 43.6473 22.409 45.322C21.307 51.5275 24.4065 59.488 33.1078 63.6518C32.1436 63.4683 31.1793 63.216 30.2265 62.9062C16.6234 58.5475 9.13886 44.0029 13.4895 30.4218C14.1439 28.3685 15.0393 26.4644 16.1183 24.7094C21.7662 20.2359 30.1576 19.8918 36.4139 23.31C40.8908 25.7647 44.9086 30.7544 44.8053 36.0538Z" fill="#F6B35A"/>
<path d="M62.0128 24.6638C58.8675 19.2841 53.277 15.0859 46.2746 12.8492C34.5541 9.09829 21.8465 13.7668 15.3721 24.205C15.3491 24.2279 15.3377 24.2623 15.3262 24.2853C14.2012 26.1091 13.2943 28.082 12.6285 30.1582C10.4474 36.9602 11.0444 44.1981 14.316 50.5527C17.5876 56.9074 23.1322 61.5989 29.9394 63.7783C30.9152 64.088 31.9139 64.3518 32.9011 64.5468C32.9011 64.5468 32.9011 64.5468 32.9126 64.5468C34.623 64.8909 36.3564 65.0515 38.0783 65.0515C44.8167 65.0515 51.4174 62.4935 56.4339 57.7792C56.4453 57.7677 56.4568 57.7562 56.4683 57.7448C56.4798 57.7333 56.5027 57.7104 56.5142 57.6989C56.5372 57.676 56.5601 57.6415 56.5716 57.6186C56.5831 57.5957 56.5946 57.5727 56.606 57.5612C56.6175 57.5268 56.6405 57.5039 56.652 57.4695C56.652 57.4465 56.6749 57.4236 56.6749 57.3892C56.6749 57.3662 56.6864 57.3318 56.6979 57.3089C56.6979 57.2745 56.6979 57.2515 56.6979 57.2171C56.6979 57.1942 56.6979 57.1598 56.6979 57.1368C56.6979 57.1253 56.6979 57.1139 56.6979 57.091C56.6979 57.068 56.6979 57.0565 56.6979 57.0336C56.6979 57.0106 56.6979 56.9877 56.6979 56.9648C56.6979 56.9304 56.6749 56.8845 56.6634 56.8501C56.6634 56.8386 56.6634 56.8271 56.652 56.8042C56.629 56.7583 56.6175 56.7124 56.5831 56.6665C56.5831 56.6665 56.5831 56.6665 56.5831 56.6551C56.4339 56.4142 56.1698 56.2536 55.8714 56.2307C55.8714 56.2307 55.8484 56.2307 55.8369 56.2307C55.814 56.2307 55.8025 56.2307 55.7795 56.2307C53.4033 56.3568 51.3141 56.288 49.374 56.0357C42.0617 55.0607 35.7365 50.6331 33.2685 44.7602C31.5925 40.7913 32.2583 34.6317 35.5873 32.1655C37.1026 32.0508 39.1918 32.2573 40.9941 33.7714C42.1879 34.7693 43.1637 36.0999 43.7606 37.5337C43.6573 38.1875 43.4851 38.8758 43.244 39.6328C43.0374 40.2866 42.0272 42.3169 40.179 43.0281C39.7543 43.2001 39.5132 43.659 39.6395 44.1063C39.7084 44.3701 41.4992 50.4724 50.2924 51.6539C54.8612 52.2618 59.3841 50.3922 62.1047 46.7675C67.0752 40.1605 65.6288 30.9152 61.9899 24.6867L62.0128 24.6638ZM31.6269 45.4369C34.336 51.8833 41.2122 56.7354 49.1444 57.8021C50.4646 57.9742 51.8421 58.0659 53.3115 58.0774C47.6751 62.4018 40.4086 64.1568 33.3832 62.7918C25.0148 58.7312 22.2827 51.1836 23.2929 45.4828C23.5799 43.854 24.0505 42.2825 24.7048 40.8143C26.2775 37.2584 28.7571 34.6087 31.8565 33.1634C32.0631 33.0602 32.2812 32.9799 32.4993 32.8996C30.2264 36.421 30.0542 41.7434 31.6154 45.4484L31.6269 45.4369ZM42.165 32.372C40.2709 30.789 37.8602 30.1008 35.1626 30.3876C33.7965 30.5252 32.4419 30.9152 31.1103 31.5346C27.6091 33.1634 24.8311 36.1228 23.0748 40.0916C22.363 41.6975 21.8465 43.4066 21.5365 45.1731C20.6641 50.0595 22.2253 56.1389 27.1614 60.7271C22.3401 58.3871 18.4256 54.5789 15.9231 49.7269C12.8696 43.8081 12.3071 37.052 14.3504 30.7088C14.9588 28.8161 15.7854 27.0038 16.807 25.3291C22.0301 21.28 29.8935 20.7753 35.9891 24.1132C39.3525 25.9485 42.8997 29.6764 43.7377 34.0008C43.267 33.4158 42.739 32.8652 42.165 32.3949V32.372ZM60.6927 45.6663C58.3968 48.7175 54.4135 50.3692 50.5564 49.853C44.5757 49.0616 42.3601 45.7466 41.6714 44.2899C43.5769 43.1887 44.656 41.1699 44.9889 40.1605C45.2874 39.2199 45.494 38.3596 45.6088 37.5337C45.6777 37.0405 45.7236 36.5472 45.7236 36.0655C45.8384 30.1237 41.3499 24.9735 36.8615 22.5188C31.5006 19.5823 24.9 19.3644 19.5047 21.67C25.9676 14.4206 36.1957 11.4956 45.7351 14.5468C52.3128 16.6573 57.5473 20.5688 60.4631 25.5585C63.8036 31.2708 65.1582 39.7016 60.6927 45.6549V45.6663Z" fill="#EE7A3A"/>
</svg>
