<svg width="250" height="259" viewBox="0 0 250 259" fill="none" xmlns="http://www.w3.org/2000/svg">
<path d="M214.163 129.656C222.873 131.412 228.508 139.884 226.754 148.587C226.655 141.172 221.038 134.588 213.476 133.063C210.674 132.499 207.905 132.701 205.376 133.514C201.276 128.58 196.352 124.195 191.175 120.366C191.83 119.96 192.553 119.626 193.328 119.384L193.378 119.313C197.894 122.469 202.218 126.056 206.051 130.104C208.583 129.281 211.361 129.092 214.152 129.654L214.163 129.656Z" fill="#FEF153"/>
<path d="M226.754 148.587C225 157.29 216.523 162.919 207.813 161.163C199.103 159.408 193.468 150.936 195.222 142.232C195.39 141.4 195.621 140.604 195.905 139.831C192.152 136.781 188.311 134.053 184.503 131.624C184.503 131.624 185.776 123.678 191.175 120.366C196.352 124.194 201.276 128.58 205.376 133.514C207.907 132.69 210.686 132.501 213.476 133.063C221.038 134.587 226.653 141.183 226.754 148.587Z" fill="white"/>
<path d="M159.618 102.75C168.542 105.765 181.603 111.089 193.389 119.315L193.339 119.387C192.553 119.626 191.841 119.963 191.186 120.369C174.372 107.923 154.858 101.323 152.198 100.459C154.062 100.975 156.602 101.733 159.618 102.75Z" fill="#FEF153"/>
<path d="M152.111 100.43C152.111 100.43 152.167 100.441 152.19 100.445C154.849 101.309 174.352 107.907 191.177 120.355C185.781 123.655 184.505 131.613 184.505 131.613C177.566 127.172 170.772 123.755 165.044 121.208C163.689 120.607 162.393 120.065 161.183 119.564C161.88 123.367 161.969 127.34 161.336 131.354C156.522 133.859 145.581 138.231 127.278 138.696C102.386 139.319 89.2838 129.026 89.2838 129.026C88.5552 125.088 88.4368 120.968 89.0164 116.814C89.121 116.063 89.2503 115.305 89.4021 114.552C89.5222 113.956 89.6514 113.373 89.803 112.795C90.6517 109.398 91.9481 106.219 93.6022 103.299L93.6722 103.126C95.8254 104.063 98.0711 104.832 100.396 105.441L100.407 105.443C101.219 105.654 102.036 105.842 102.869 106.009C118.477 109.155 133.835 103.954 144.306 93.4857C146.873 95.0444 150.149 98.197 151.888 100.373C151.888 100.373 151.967 100.389 152.12 100.443L152.111 100.43Z" fill="#F6B35A"/>
<path d="M176.285 164.205C176.925 165.446 178.005 166.131 178.005 166.131C178.005 166.131 174.1 165.637 172.534 168.118C170.968 170.599 171.955 173.489 171.955 173.489C171.955 173.489 168.402 172.352 166.397 174.978C166.126 175.333 165.916 175.677 165.745 176.005L165.574 175.924C157.618 175.772 152.073 172.957 148.271 169.57C157.915 167.383 161.21 161.67 162.347 157.944C165.454 161.121 169.933 163.826 176.299 164.196L176.285 164.205Z" fill="white"/>
<path d="M175.874 161.712C175.724 162.688 175.942 163.527 176.285 164.205C169.919 163.835 165.441 161.13 162.334 157.953C162.921 156.024 162.921 154.632 162.926 154.551C165.749 157.507 169.854 160.206 175.727 160.992L176.015 161.073C175.963 161.273 175.917 161.498 175.883 161.725L175.874 161.712Z" fill="#FEF153"/>
<path d="M162.926 154.551C162.932 154.634 162.922 156.024 162.334 157.953C157.43 152.94 155.975 146.737 155.975 146.737C156.451 146.178 156.907 145.603 157.351 145.026C157.351 145.026 158.672 150.089 162.926 154.551Z" fill="#FEF153"/>
<path d="M164.998 121.316C165.044 124.052 164.811 126.836 164.249 129.625C164.249 129.625 163.309 130.336 161.336 131.354C161.969 127.34 161.88 123.367 161.183 119.564C162.404 120.068 163.698 120.621 165.044 121.208L165.001 121.305L164.998 121.316Z" fill="#FEF153"/>
<path d="M161.333 131.366C163.307 130.348 164.247 129.636 164.247 129.636C163.082 135.416 160.675 140.617 157.351 145.026C156.904 145.614 156.451 146.178 155.975 146.738C153.639 149.496 150.917 151.908 147.918 153.89C154.473 148.904 159.307 141.594 161.061 132.89C161.163 132.384 161.254 131.876 161.333 131.366Z" fill="#FEF153"/>
<path d="M103.316 152.132C101.715 152.581 98.8213 153.461 95.4313 154.825C92.7667 155.903 89.7865 157.268 86.9162 158.96L86.8646 158.867C86.8558 158.678 86.8358 158.487 86.8158 158.296C85.5493 144.069 73.7897 141.699 73.7897 141.699L73.7 141.506C81.1971 137.716 88.4768 136.574 91.3994 136.25C90.4614 133.932 89.7555 131.508 89.2974 129.017C89.2974 129.017 102.399 139.31 127.292 138.687C145.595 138.222 156.535 133.85 161.349 131.345C161.27 131.856 161.179 132.364 161.077 132.87C159.323 141.573 154.489 148.883 147.933 153.869C145.649 155.386 143.204 156.649 140.639 157.641C134.085 160.182 126.729 160.946 119.324 159.453C113.765 158.333 108.732 156.055 104.432 152.93C104.063 152.668 103.71 152.387 103.344 152.114L103.316 152.132Z" fill="#EE7A3A"/>
<path d="M147.904 153.898C150.905 151.906 153.626 149.505 155.964 146.735C155.964 146.735 157.419 152.938 162.322 157.951C161.185 161.677 157.888 167.401 148.246 169.577C142.307 164.296 140.601 157.657 140.601 157.657C143.166 156.664 145.61 155.402 147.895 153.885L147.904 153.898Z" fill="#EE7A3A"/>
<path d="M156.901 98.7973C157.886 100.072 158.8 101.403 159.618 102.75C156.602 101.733 154.051 100.972 152.198 100.459C152.165 100.452 152.142 100.447 152.12 100.443C151.967 100.389 151.888 100.373 151.888 100.373C150.148 98.1968 146.873 95.0443 144.306 93.4856C145.408 92.3738 146.461 91.217 147.456 90.0016C151.063 92.3201 154.272 95.4005 156.91 98.8108L156.901 98.7973Z" fill="#FEF153"/>
<path d="M156.759 70.2179C155.246 77.7291 151.975 84.4299 147.458 89.9904C146.464 91.2058 145.42 92.3762 144.308 93.4744C133.838 103.943 118.491 109.146 102.871 105.998C102.039 105.83 101.222 105.642 100.409 105.432C124.128 108.656 146.572 92.936 151.365 69.154C156.158 45.372 141.376 21.9159 118.027 15.8646C118.995 16.0012 119.97 16.1625 120.938 16.3575C124.257 17.0266 127.414 18.0373 130.393 19.3514C149.623 27.8256 161.081 48.7747 156.759 70.2179Z" fill="#FEF153"/>
<path d="M151.365 69.1541C146.574 92.9248 124.119 108.642 100.409 105.432L100.398 105.43C98.0711 104.832 95.8164 104.05 93.6745 103.115C92.338 102.541 91.0376 101.905 89.7846 101.208C74.1231 92.5751 64.6257 75.2623 66.3498 56.9464C66.496 55.3494 66.7367 53.7481 67.0585 52.1514C69.6533 39.2765 77.4296 28.7564 87.787 22.3371C96.5515 16.9073 107.163 14.4005 118.036 15.8782C141.385 21.9295 156.194 45.2507 151.374 69.1676L151.365 69.1541ZM116.065 57.7338C120.261 58.123 123.972 55.0448 124.361 50.8522C124.749 46.6595 121.668 42.9493 117.474 42.5488C113.281 42.1483 109.566 45.2378 109.167 49.4282C108.767 53.6186 111.86 57.331 116.054 57.7315L116.065 57.7338ZM100.855 56.6224C105.05 57.0117 108.762 53.9335 109.162 49.7431C109.55 45.5504 106.469 41.8403 102.275 41.4398C98.0795 41.0505 94.3676 44.1287 93.968 48.3191C93.5685 52.5095 96.6612 56.2219 100.855 56.6224Z" fill="white"/>
<path d="M124.361 50.8521C123.972 55.0447 120.249 58.1207 116.065 57.7337C111.869 57.3444 108.79 53.623 109.178 49.4303C109.566 45.2377 113.289 42.1617 117.485 42.551C121.681 42.9403 124.76 46.6617 124.372 50.8543L124.361 50.8521ZM116.469 53.3453C118.238 53.5146 119.814 52.2057 119.983 50.4377C120.152 48.6698 118.841 47.0952 117.072 46.9258C115.303 46.7565 113.727 48.0655 113.558 49.8334C113.389 51.6013 114.7 53.1759 116.469 53.3453Z" fill="white"/>
<path d="M119.983 50.4379C119.814 52.2058 118.25 53.517 116.469 53.3454C114.689 53.1738 113.39 51.6014 113.559 49.8335C113.727 48.0656 115.292 46.7543 117.072 46.926C118.853 47.0976 120.154 48.6587 119.983 50.4379Z" fill="#EE7A3A"/>
<path d="M109.153 49.7296C108.765 53.9222 105.041 56.9982 100.846 56.6089C96.6499 56.2196 93.5706 52.4982 93.9589 48.3056C94.3472 44.1129 98.0703 41.037 102.266 41.4262C106.462 41.8155 109.541 45.5369 109.153 49.7296ZM101.261 52.2228C103.03 52.3922 104.606 51.0832 104.775 49.3153C104.944 47.5473 103.633 45.9727 101.864 45.8034C100.095 45.634 98.5195 46.943 98.3505 48.7109C98.1816 50.4788 99.492 52.0534 101.261 52.2228Z" fill="white"/>
<path d="M86.8622 158.879L86.9139 158.971C81.8244 161.971 77.0239 165.976 74.7703 171.115C72.632 175.973 72.2602 181.246 72.6681 186.02C73.3995 194.651 76.6702 201.664 76.6702 201.664C83.9598 204.946 86.0739 220.022 71.6162 225.346C82.158 219.058 80.6127 206.273 73.9891 203.288C73.9891 203.288 65.9547 186.211 71.6034 172.419C74.7315 164.8 80.9656 161.06 86.8247 158.31C86.8447 158.501 86.8557 158.679 86.8735 158.881L86.8622 158.879Z" fill="#FEF153"/>
<path d="M73.9777 203.286C80.6126 206.273 82.158 219.057 71.6048 225.344C68.1768 226.607 63.8039 227.329 58.3606 227.203C40.9074 226.821 36.4023 220.355 35.5218 215.427C34.9654 212.319 35.8535 209.831 35.8535 209.831C39.7889 199.484 53.3362 199.898 53.3362 199.898C49.488 192.09 47.0809 173.936 57.6832 156.075C61.8528 149.041 67.8404 144.491 73.6953 141.528L73.785 141.722C73.785 141.722 85.5446 144.092 86.8111 158.318C80.943 161.056 74.7066 164.807 71.5897 172.428C65.9298 186.218 73.9755 203.297 73.9755 203.297L73.9777 203.286Z" fill="white"/>
<path d="M104.773 49.3264C104.604 51.0944 103.028 52.4033 101.259 52.234C99.4899 52.0646 98.1772 50.5012 98.3484 48.722C98.5196 46.9429 100.081 45.6429 101.862 45.8145C103.642 45.9861 104.944 47.5472 104.773 49.3264Z" fill="#EE7A3A"/>
<path d="M93.6745 103.115L93.6045 103.288C91.9504 106.208 90.6652 109.389 89.8052 112.784C78.8762 113.963 70.0334 115.656 60.9932 118.503C57.6933 113.146 59.0277 106.815 59.0277 106.815C70.043 103.349 81.2763 101.88 89.7463 101.282L89.7846 101.208C91.0489 101.907 92.338 102.541 93.6745 103.115Z" fill="#F6B35A"/>
<path d="M89.0164 116.814C81.9197 117.397 72.8524 118.635 63.2204 121.222C62.3143 120.373 61.5862 119.453 61.0044 118.505C70.0446 115.659 78.8874 113.966 89.8164 112.787C89.6761 113.367 89.5357 113.947 89.4156 114.543C89.2638 115.296 89.1344 116.054 89.0299 116.805L89.0164 116.814Z" fill="#FEF153"/>
<path d="M60.9931 118.503C61.5749 119.451 62.3031 120.37 63.2092 121.22C59.4596 122.219 55.6309 123.437 51.7906 124.886C51.812 125.709 51.7861 126.535 51.6747 127.378C50.5779 136.191 42.5484 142.447 33.7408 141.351C30.3578 140.938 27.3476 139.489 24.9753 137.373C26.7727 138.39 28.7867 139.089 30.9587 139.351C39.7776 140.45 47.8093 134.182 48.8926 125.378C48.9928 124.533 49.0299 123.709 49.0085 122.886C53.1575 121.183 57.0901 119.741 60.9796 118.512L60.9931 118.503Z" fill="#FEF153"/>
<path d="M59.0275 106.815C59.0275 106.815 57.6931 113.146 60.993 118.503C57.1035 119.732 53.171 121.174 49.0219 122.877C49.0434 123.701 49.0152 124.537 48.9061 125.37C47.8092 134.182 39.7798 140.438 30.9722 139.342C28.8001 139.08 26.7749 138.379 24.9888 137.364C21.2 133.967 19.084 128.837 19.7553 123.414C20.8409 114.6 28.8816 108.345 37.6892 109.442C40.523 109.791 43.0835 110.857 45.2358 112.437C49.6468 110.132 54.316 108.288 59.0275 106.815Z" fill="white"/>
<path d="M32.3624 141.915C29.4141 141.321 26.7009 139.967 24.4614 137.948C20.3443 134.263 18.2962 128.795 18.9789 123.316C19.5273 118.852 21.7951 114.862 25.3513 112.092C28.9074 109.322 33.3214 108.105 37.8006 108.657C40.4972 108.99 43.0847 109.979 45.3159 111.517C49.3777 109.434 53.9163 107.599 58.8058 106.057C70.2581 102.456 81.9258 101.04 89.6955 100.488C90.1346 100.459 90.5033 100.779 90.5433 101.22C90.572 101.659 90.2518 102.027 89.8105 102.067C82.1241 102.612 70.5779 104.006 59.2743 107.567C54.2992 109.127 49.693 111.007 45.6087 113.144C45.3451 113.29 45.0232 113.26 44.778 113.082C42.6775 111.535 40.2047 110.557 37.6004 110.231C33.5444 109.73 29.5402 110.83 26.3176 113.34C23.095 115.85 21.0438 119.462 20.5432 123.515C19.9287 128.481 21.7884 133.431 25.5165 136.78C27.846 138.876 30.7213 140.181 33.841 140.564C42.2142 141.608 49.8583 135.636 50.8982 127.28C50.9938 126.516 51.0264 125.715 51.0139 124.905C51.0009 124.563 51.2129 124.266 51.5192 124.141C55.1591 122.757 59.0261 121.523 63.0122 120.454C71.2321 118.25 79.9508 116.766 88.9522 116.029C89.38 115.998 89.7712 116.323 89.8022 116.75C89.8444 117.18 89.5084 117.569 89.0807 117.599C80.1874 118.323 71.5519 119.8 63.4198 121.976C59.6815 122.978 56.0397 124.139 52.5959 125.423C52.5972 126.113 52.5513 126.806 52.4648 127.467C51.3202 136.691 42.8851 143.276 33.6431 142.127C33.2086 142.074 32.7787 141.999 32.3624 141.915Z" fill="#EE7A3A"/>
<path d="M91.2384 137.049C91.0359 137.008 90.8492 136.888 90.7234 136.699C90.6964 136.659 90.6717 136.607 90.656 136.569C89.6957 134.187 88.9786 131.702 88.5137 129.186C87.7515 125.066 87.6603 120.87 88.2399 116.716C88.3512 115.931 88.4851 115.151 88.6346 114.409C88.7525 113.824 88.8861 113.219 89.0423 112.619C89.8933 109.21 91.1943 105.95 92.9183 102.916C93.1349 102.538 93.6191 102.402 93.997 102.618C94.375 102.835 94.5116 103.319 94.295 103.696C92.6432 106.605 91.4031 109.736 90.5816 112.999C90.439 113.591 90.3009 114.16 90.1876 114.722C90.0425 115.441 89.9155 116.188 89.8109 116.939C89.2541 120.923 89.3343 124.94 90.0696 128.903C90.5189 131.322 91.2091 133.708 92.1313 135.988C92.284 136.335 92.1528 136.753 91.8194 136.955C91.6436 137.072 91.4387 137.101 91.2474 137.062L91.2384 137.049Z" fill="#EE7A3A"/>
<path d="M119.141 160.247C113.593 159.129 108.47 156.892 103.936 153.591C103.567 153.329 103.191 153.043 102.827 152.759C102.483 152.491 102.418 151.998 102.698 151.656C102.966 151.313 103.457 151.259 103.801 151.528C104.157 151.798 104.512 152.069 104.858 152.326C109.208 155.496 114.115 157.643 119.449 158.718C126.471 160.133 133.691 159.517 140.322 156.946C142.825 155.976 145.217 154.738 147.459 153.259C147.824 153.017 148.308 153.114 148.551 153.479C148.793 153.844 148.696 154.327 148.331 154.57C145.994 156.111 143.496 157.41 140.892 158.418C133.968 161.106 126.439 161.742 119.125 160.268L119.141 160.247Z" fill="#EE7A3A"/>
<path d="M147.75 154.663C147.547 154.622 147.372 154.505 147.244 154.327C147.001 153.962 147.099 153.479 147.464 153.236C150.422 151.282 153.075 148.926 155.352 146.226C155.828 145.667 156.281 145.103 156.699 144.543C160.07 140.074 162.346 134.998 163.461 129.466C164.003 126.779 164.25 124.043 164.199 121.33C164.193 120.896 164.536 120.532 164.97 120.526C165.405 120.52 165.769 120.863 165.775 121.297C165.825 124.127 165.565 126.988 165.003 129.777C163.84 135.545 161.476 140.826 157.96 145.488C157.527 146.068 157.058 146.652 156.553 147.24C154.172 150.048 151.407 152.498 148.327 154.534C148.151 154.65 147.932 154.688 147.741 154.65L147.75 154.663Z" fill="#EE7A3A"/>
<path d="M109.499 138.014C96.1864 135.331 89.2013 129.957 88.8055 129.655C88.4614 129.386 88.408 128.896 88.6764 128.552C88.9447 128.208 89.4356 128.155 89.7797 128.424C89.9416 128.55 103.012 138.532 127.259 137.92C145.35 137.459 156.142 133.186 160.969 130.672C162.839 129.703 163.763 129.012 163.774 129.014C164.119 128.756 164.621 128.822 164.88 129.167C165.138 129.511 165.072 130.013 164.727 130.271C164.687 130.298 163.706 131.037 161.706 132.073C156.761 134.645 145.713 139.029 127.304 139.497C120.478 139.665 114.538 139.042 109.497 138.026L109.499 138.014Z" fill="#EE7A3A"/>
<path d="M49.0565 227.06C38.7712 224.987 35.5182 219.92 34.7428 215.574C34.1596 212.309 35.0635 209.683 35.1087 209.575C38.4884 200.708 48.5869 199.35 52.1171 199.149C50.1444 194.527 49.1016 188.139 49.3015 181.744C49.5882 172.71 52.2476 163.697 57.0016 155.681C60.7087 149.431 66.1993 144.441 73.3428 140.837C80.9818 136.983 88.4529 135.82 91.3057 135.494C92.1793 135.401 92.6769 135.373 92.6994 135.377C93.1361 135.36 93.5026 135.691 93.5313 136.13C93.5487 136.567 93.2173 136.933 92.7783 136.961C92.7783 136.961 92.3055 136.983 91.4792 137.074C88.712 137.382 81.457 138.518 74.0523 142.256C67.1814 145.727 61.9072 150.515 58.358 156.504C48.1235 173.76 50.1707 191.724 54.0436 199.584C54.1693 199.832 54.1464 200.12 54.0043 200.36C53.8531 200.587 53.5896 200.733 53.3217 200.726C53.1934 200.723 40.2942 200.464 36.596 210.156C36.596 210.156 35.7959 212.499 36.3009 215.339C36.9779 219.184 39.9526 223.657 49.3602 225.553C51.8809 226.061 54.8499 226.378 58.3707 226.456C63.4065 226.57 67.7702 225.952 71.3244 224.644C80.2549 221.354 81.4364 214.852 81.5233 212.213C81.6798 207.892 79.5398 203.868 76.3292 202.426C76.1582 202.344 76.021 202.211 75.938 202.043C75.7988 201.745 72.5955 194.805 71.8709 186.14C71.3811 180.378 72.1128 175.237 74.039 170.851C76.0712 166.229 80.2686 162.02 86.5004 158.35C89.0643 156.842 91.959 155.436 95.1214 154.155C98.6262 152.743 101.617 151.848 103.094 151.432C103.939 151.193 104.419 151.079 104.443 151.072C104.862 150.969 105.287 151.242 105.39 151.661C105.493 152.079 105.22 152.504 104.802 152.607C104.802 152.607 104.322 152.721 103.516 152.944C102.077 153.345 99.1353 154.226 95.7071 155.606C92.6212 156.857 89.7918 158.229 87.2955 159.692C81.3431 163.196 77.3712 167.158 75.4699 171.478C73.6522 175.617 72.959 180.509 73.4222 185.996C74.0561 193.484 76.6614 199.79 77.2382 201.111C80.858 202.905 83.245 207.447 83.081 212.27C82.9758 215.232 81.6739 222.505 71.8447 226.129C68.0991 227.516 63.544 228.154 58.3078 228.046C54.7172 227.966 51.6447 227.64 49.0227 227.111L49.0565 227.06Z" fill="#EE7A3A"/>
<path d="M207.657 161.939C198.53 160.1 192.608 151.195 194.446 142.076C194.582 141.401 194.763 140.736 194.975 140.088C191.6 137.372 187.938 134.738 184.079 132.276C178.113 128.464 171.601 124.987 164.723 121.927C163.443 121.365 162.149 120.812 160.884 120.288C153.963 117.442 149.285 116.136 149.24 116.127C148.819 116.007 148.579 115.573 148.685 115.161C148.805 114.741 149.229 114.499 149.652 114.607C149.697 114.616 154.463 115.951 161.472 118.826C162.759 119.355 164.064 119.911 165.353 120.486C172.296 123.571 178.883 127.086 184.92 130.947C188.998 133.548 192.864 136.328 196.393 139.215C196.653 139.432 196.748 139.778 196.637 140.095C196.359 140.835 196.146 141.6 195.99 142.376C194.324 150.64 199.698 158.721 207.97 160.388C216.241 162.054 224.325 156.687 225.991 148.422C227.656 140.157 222.28 132.088 214.009 130.421C211.443 129.904 208.778 130.057 206.298 130.856C206.01 130.95 205.688 130.862 205.485 130.646C201.943 126.901 197.713 123.311 192.931 119.96C181.229 111.786 168.219 106.496 159.362 103.494C156.172 102.418 153.584 101.662 151.977 101.21C151.556 101.09 151.316 100.655 151.424 100.233C151.544 99.8122 151.979 99.5722 152.402 99.6809C154.032 100.138 156.642 100.898 159.864 101.992C168.82 105.026 181.98 110.381 193.838 118.656C198.559 121.96 202.75 125.508 206.293 129.194C208.892 128.442 211.657 128.321 214.324 128.858C223.45 130.697 229.373 139.602 227.535 148.721C225.697 157.841 216.788 163.756 207.661 161.917L207.657 161.939Z" fill="#EE7A3A"/>
<path d="M151.955 101.206C151.955 101.206 151.921 101.199 151.898 101.194C149.846 100.628 148.649 100.352 148.637 100.35C148.21 100.264 147.945 99.8357 148.042 99.4107C148.128 98.9834 148.545 98.7164 148.982 98.8161C149.027 98.8251 150.224 99.1016 152.319 99.6876C152.74 99.8075 152.98 100.242 152.871 100.665C152.756 101.063 152.355 101.31 151.961 101.23L151.955 101.206Z" fill="#EE7A3A"/>
<path d="M63.055 121.984C62.92 121.957 62.7805 121.894 62.6726 121.79C61.7665 120.941 60.9776 119.974 60.3239 118.918C56.9004 113.36 58.1967 106.929 58.2533 106.647C58.3394 106.22 58.7698 105.944 59.1839 106.039C59.6115 106.126 59.8788 106.542 59.7927 106.969C59.7791 107.037 58.5734 113.077 61.6622 118.088C62.244 119.036 62.9385 119.89 63.7479 120.638C64.0627 120.935 64.0801 121.43 63.7802 121.756C63.5863 121.963 63.3003 122.045 63.0415 121.993L63.055 121.984Z" fill="#EE7A3A"/>
<path d="M184.347 132.4C183.93 132.316 183.658 131.922 183.72 131.501C183.776 131.161 185.122 123.148 190.759 119.698C191.494 119.249 192.28 118.892 193.093 118.635C193.505 118.507 193.95 118.738 194.076 119.161C194.204 119.573 193.973 120.018 193.55 120.143C192.863 120.356 192.194 120.654 191.579 121.033C186.543 124.113 185.279 131.663 185.264 131.742C185.2 132.174 184.79 132.466 184.36 132.391C184.36 132.391 184.338 132.386 184.326 132.384L184.347 132.4Z" fill="#EE7A3A"/>
<path d="M173.986 161.495C169.439 160.579 165.527 158.433 162.349 155.089C162.05 154.772 162.057 154.27 162.375 153.971C162.693 153.673 163.195 153.68 163.494 153.998C166.789 157.459 170.947 159.549 175.827 160.205C176.259 160.268 176.567 160.658 176.503 161.09C176.451 161.524 176.05 161.829 175.618 161.765C175.071 161.69 174.526 161.604 173.986 161.495Z" fill="#EE7A3A"/>
<path d="M162.772 155.315C162.614 155.283 162.477 155.209 162.36 155.092C158.019 150.543 156.646 145.445 156.585 145.222C156.471 144.801 156.721 144.372 157.154 144.26C157.575 144.146 158.004 144.397 158.116 144.829C158.134 144.914 159.463 149.769 163.505 154C163.804 154.318 163.797 154.82 163.479 155.118C163.289 155.303 163.019 155.365 162.783 155.317L162.772 155.315Z" fill="#EE7A3A"/>
<path d="M159.811 176.108C155.186 175.176 151.147 173.192 147.741 170.165C141.692 164.792 139.929 158.142 139.857 157.858C139.743 157.437 140.005 157.01 140.426 156.896C140.845 156.793 141.275 157.044 141.389 157.465C141.409 157.539 143.125 163.958 148.798 168.986C153.257 172.95 158.907 175.013 165.593 175.132C166.025 175.137 166.374 175.5 166.369 175.932C166.364 176.364 166.001 176.712 165.568 176.707C163.563 176.665 161.647 176.466 159.824 176.099L159.811 176.108Z" fill="#EE7A3A"/>
<path d="M148.1 170.355C147.808 170.296 147.561 170.07 147.484 169.751C147.384 169.321 147.654 168.907 148.085 168.807C157.067 166.768 160.381 161.655 161.584 157.72C162.143 155.879 162.138 154.567 162.14 154.556C162.151 154.5 162.14 154.439 162.149 154.394C162.235 153.967 162.654 153.688 163.082 153.775C163.465 153.852 163.734 154.199 163.716 154.581C163.711 154.837 163.682 156.259 163.094 158.188C162.016 161.739 158.673 168.039 148.44 170.353C148.33 170.378 148.213 170.377 148.112 170.357L148.1 170.355Z" fill="#EE7A3A"/>
<path d="M86.6946 159.652C86.357 159.584 86.0872 159.296 86.0675 158.929C86.0587 158.74 86.0364 158.56 86.0254 158.382C84.8232 144.941 74.0812 142.577 73.6311 142.487C73.2034 142.4 72.9249 141.981 73.011 141.554C73.0971 141.127 73.5162 140.849 73.9438 140.935C74.0676 140.96 86.2905 143.587 87.6015 158.232C87.6215 158.423 87.6303 158.612 87.648 158.815C87.6767 159.253 87.3565 159.622 86.9175 159.65C86.8454 159.659 86.7779 159.646 86.7104 159.632L86.6946 159.652Z" fill="#EE7A3A"/>
<path d="M102.717 106.763C101.896 106.597 101.056 106.405 100.233 106.192C100.233 106.192 100.21 106.187 100.199 106.185C97.8718 105.587 95.5608 104.794 93.3537 103.834C92.0285 103.263 90.6966 102.608 89.4009 101.891C73.1814 92.9469 63.8286 75.2653 65.5596 56.8572C65.7126 55.2265 65.9624 53.5802 66.2865 51.9722C68.811 39.446 76.4956 28.3926 87.3758 21.6457C96.5436 15.9578 107.472 13.6202 118.139 15.0796C119.151 15.2252 120.148 15.3911 121.105 15.5839C124.425 16.2529 127.649 17.2772 130.716 18.6208C140.267 22.8274 148.219 30.2573 153.117 39.5405C158.08 48.9655 159.646 59.9057 157.54 70.3518C156.056 77.7169 152.78 84.6742 148.076 90.466C147.08 91.6927 146.006 92.8923 144.879 94.0107C133.82 105.074 118.06 109.831 102.733 106.742L102.717 106.763ZM100.577 104.658C100.577 104.658 100.599 104.663 100.611 104.665C101.423 104.875 102.229 105.061 103.028 105.222C117.837 108.207 133.061 103.611 143.742 92.9156C144.828 91.824 145.868 90.6762 146.833 89.4899C151.381 83.889 154.548 77.179 155.983 70.0613C160.121 49.529 149.228 28.5065 130.072 20.0707C127.114 18.7724 123.988 17.7797 120.781 17.1333C119.858 16.9474 118.895 16.7883 117.916 16.6495C107.612 15.2514 97.0526 17.4996 88.1935 22.9923C77.5296 29.5955 70.3028 40.004 67.8259 52.2942C67.5131 53.8459 67.2746 55.436 67.133 57.0105C65.4569 74.7978 74.4998 91.8669 90.1704 100.513C91.4256 101.199 92.7035 101.831 93.9972 102.384C96.1302 103.306 98.3421 104.067 100.59 104.649L100.577 104.658Z" fill="#EE7A3A"/>
<path d="M99.8812 57.2686C98.002 56.8899 96.3194 55.8838 95.0854 54.3948C93.6537 52.667 92.9813 50.4837 93.1869 48.2434C93.3925 46.0031 94.4667 43.9847 96.1953 42.5546C97.9239 41.1244 100.111 40.4418 102.35 40.6591C106.972 41.0873 110.37 45.2007 109.943 49.8185C109.516 54.4363 105.398 57.8422 100.779 57.4028C100.48 57.3775 100.174 57.3276 99.8812 57.2686ZM102.916 42.3293C102.679 42.2817 102.441 42.2453 102.2 42.2201C100.383 42.053 98.6108 42.5967 97.2045 43.7642C95.7982 44.9318 94.9293 46.5703 94.7625 48.3855C94.5958 50.2007 95.1405 51.972 96.3092 53.3777C97.478 54.7833 99.118 55.6521 100.935 55.8193C104.694 56.1674 108.027 53.399 108.372 49.654C108.703 46.1518 106.305 43.0007 102.918 42.318L102.916 42.3293Z" fill="#EE7A3A"/>
<path d="M100.763 52.953C99.8624 52.7716 99.0683 52.2956 98.4749 51.5793C97.7872 50.7503 97.4689 49.715 97.5671 48.6465C97.7772 46.4422 99.7311 44.8234 101.937 45.034C103.006 45.1325 103.969 45.6425 104.657 46.4714C105.345 47.3004 105.663 48.3358 105.565 49.4042C105.466 50.4726 104.956 51.4346 104.127 52.1216C103.298 52.8087 102.262 53.1264 101.193 53.028C101.044 53.0097 100.907 52.9938 100.76 52.9643L100.763 52.953ZM102.047 46.6359C101.957 46.6178 101.879 46.6019 101.786 46.595C101.143 46.5355 100.505 46.7346 100 47.1477C99.4956 47.5608 99.1909 48.143 99.1293 48.7976C99.0699 49.4409 99.2694 50.0778 99.6829 50.5824C100.097 51.087 100.69 51.3939 101.334 51.4535C101.978 51.513 102.615 51.3138 103.12 50.9007C103.625 50.4876 103.93 49.9054 103.991 49.2509C104.051 48.6076 103.851 47.9706 103.438 47.466C103.08 47.0313 102.588 46.7448 102.047 46.6359Z" fill="#EE7A3A"/>
<path d="M115.114 58.3846C110.95 57.5454 107.995 53.6735 108.408 49.3572C108.614 47.1169 109.688 45.0985 111.417 43.6683C113.145 42.2381 115.33 41.5667 117.572 41.7729C119.814 41.979 121.834 43.0531 123.266 44.7809C124.697 46.5087 125.37 48.6919 125.164 50.9322C124.737 55.55 120.622 58.9447 116.012 58.5188C115.713 58.4935 115.418 58.4458 115.125 58.3868L115.114 58.3846ZM118.148 43.4453C117.912 43.3976 117.662 43.359 117.421 43.3338C113.662 42.9858 110.331 45.7429 109.984 49.4992C109.637 53.2555 112.408 56.5872 116.156 56.933C119.904 57.2788 123.246 54.524 123.593 50.7677C123.76 48.9525 123.215 47.1811 122.046 45.7755C121.037 44.5658 119.679 43.7537 118.148 43.4453Z" fill="#EE7A3A"/>
<path d="M115.982 54.0778C114.001 53.6787 112.594 51.8272 112.786 49.7713C112.884 48.7029 113.395 47.7409 114.224 47.0539C115.053 46.3668 116.089 46.0491 117.158 46.1476C118.228 46.246 119.19 46.756 119.878 47.585C120.566 48.414 120.884 49.4493 120.786 50.5177C120.576 52.722 118.622 54.3408 116.414 54.1415C116.277 54.1255 116.128 54.1073 115.993 54.0801L115.982 54.0778ZM117.255 47.7584C117.165 47.7403 117.087 47.7244 116.994 47.7175C116.35 47.658 115.713 47.8572 115.208 48.2703C114.703 48.6834 114.399 49.2655 114.337 49.9201C114.209 51.2517 115.198 52.4456 116.531 52.5737C117.175 52.6333 117.812 52.4341 118.317 52.021C118.822 51.6079 119.126 51.0257 119.188 50.3712C119.247 49.7279 119.048 49.0909 118.634 48.5863C118.277 48.1515 117.784 47.865 117.244 47.7562L117.255 47.7584Z" fill="#EE7A3A"/>
<path d="M106.351 70.777C97.81 69.0557 95.0805 61.3913 95.0514 61.3035C94.9123 60.8893 95.1313 60.442 95.5457 60.3032C95.9601 60.1644 96.4078 60.3833 96.5491 60.7862C96.668 61.1261 99.5233 69.0382 109.018 69.5126C118.455 69.9869 121.138 63.2379 121.242 62.9546C121.394 62.5522 121.858 62.3415 122.26 62.4929C122.663 62.6442 122.876 63.0967 122.723 63.5104C122.696 63.5869 119.556 71.6129 108.935 71.0872C108.019 71.043 107.164 70.9291 106.353 70.7658L106.351 70.777Z" fill="#EE7A3A"/>
<path d="M165.522 180.77C165.32 180.729 165.144 180.612 165.016 180.434C164.962 180.353 163.682 178.339 165.029 175.662C165.226 175.269 165.467 174.885 165.754 174.509C167.283 172.501 169.539 172.347 170.925 172.498C170.769 171.296 170.772 169.424 171.857 167.701C172.877 166.069 174.683 165.532 176.085 165.37C175.91 165.136 175.73 164.866 175.58 164.566C175.091 163.625 174.93 162.622 175.089 161.6C175.145 161.319 175.195 161.072 175.238 160.858C175.976 158.012 178.12 157.016 178.211 156.976C178.609 156.799 179.077 156.975 179.255 157.373C179.432 157.772 179.258 158.228 178.868 158.419C178.792 158.45 177.309 159.181 176.771 161.273C176.723 161.45 176.687 161.63 176.653 161.857C176.551 162.539 176.66 163.216 176.988 163.855C177.52 164.875 178.418 165.477 178.429 165.48C178.739 165.683 178.874 166.061 178.745 166.409C178.616 166.758 178.269 166.969 177.905 166.919C177.871 166.912 174.472 166.519 173.197 168.544C171.855 170.672 172.687 173.227 172.694 173.252C172.79 173.529 172.715 173.841 172.508 174.057C172.301 174.273 171.981 174.349 171.706 174.258C171.585 174.222 168.65 173.326 167.011 175.476C166.785 175.782 166.585 176.081 166.442 176.38C165.521 178.219 166.323 179.527 166.346 179.59C166.577 179.953 166.466 180.445 166.103 180.676C165.928 180.793 165.712 180.819 165.52 180.781L165.522 180.77Z" fill="#EE7A3A"/>
<path d="M158.937 103.163C158.131 101.818 157.234 100.514 156.277 99.2801C156.268 99.2666 156.248 99.2508 156.241 99.226C153.567 95.7618 150.372 92.7893 147.022 90.64C146.66 90.4032 146.548 89.9126 146.785 89.5508C147.022 89.189 147.513 89.0773 147.875 89.3141C151.391 91.5672 154.732 94.6861 157.528 98.3035C157.537 98.3171 157.557 98.3328 157.564 98.3576C158.539 99.619 159.451 100.961 160.285 102.346L158.937 103.163Z" fill="#EE7A3A"/>
</svg>
