<svg width="499" height="518" viewBox="0 0 499 518" fill="none" xmlns="http://www.w3.org/2000/svg">
<path d="M428.326 259.314C445.746 262.825 457.016 279.769 453.508 297.176C453.311 282.346 442.077 269.176 426.953 266.128C421.349 264.999 415.81 265.404 410.752 267.029C402.553 257.162 392.704 248.39 382.35 240.734C383.661 239.922 385.107 239.254 386.657 238.77L386.756 238.626C395.788 244.94 404.437 252.112 412.103 260.21C417.166 258.563 422.722 258.185 428.304 259.31L428.326 259.314Z" fill="#FEF153"/>
<path d="M453.509 297.176C450.001 314.582 433.047 325.839 415.628 322.328C398.208 318.817 386.938 301.872 390.446 284.466C390.782 282.802 391.243 281.21 391.812 279.663C384.306 273.563 376.623 268.107 369.007 263.249C369.007 263.249 371.554 247.357 382.351 240.734C392.705 248.39 402.554 257.162 410.753 267.029C415.816 265.381 421.373 265.003 426.954 266.128C442.078 269.176 453.308 282.368 453.509 297.176Z" fill="white"/>
<path d="M319.237 205.501C337.086 211.532 363.208 222.179 386.779 238.631L386.68 238.774C385.108 239.253 383.684 239.926 382.373 240.738C348.746 215.847 309.718 202.646 304.398 200.919C308.125 201.951 313.206 203.466 319.237 205.501Z" fill="#FEF153"/>
<path d="M304.222 200.86C304.222 200.86 304.334 200.882 304.379 200.891C309.699 202.619 348.704 215.815 382.354 240.711C371.561 247.311 369.01 263.226 369.01 263.226C355.132 254.344 341.543 247.51 330.087 242.416C327.378 241.215 324.786 240.131 322.365 239.128C323.76 246.734 323.938 254.68 322.671 262.709C313.043 267.719 291.163 276.462 254.557 277.392C204.771 278.638 178.567 258.052 178.567 258.052C177.11 250.176 176.873 241.937 178.033 233.629C178.242 232.127 178.5 230.611 178.804 229.104C179.044 227.912 179.302 226.747 179.606 225.591C181.303 218.796 183.896 212.438 187.204 206.599L187.344 206.253C191.65 208.127 196.142 209.664 200.791 210.882L200.814 210.886C202.439 211.307 204.072 211.684 205.738 212.019C236.954 218.311 267.67 207.909 288.612 186.972C293.745 190.089 300.297 196.394 303.776 200.746C303.776 200.746 303.933 200.778 304.239 200.887L304.222 200.86Z" fill="#F6B35A"/>
<path d="M352.572 328.411C353.852 330.892 356.011 332.263 356.011 332.263C356.011 332.263 348.201 331.274 345.069 336.236C341.938 341.198 343.911 346.979 343.911 346.979C343.911 346.979 336.805 344.704 332.795 349.957C332.254 350.667 331.834 351.355 331.491 352.011L331.149 351.848C315.238 351.544 304.147 345.915 296.542 339.14C315.832 334.767 322.421 323.341 324.696 315.889C330.91 322.243 339.867 327.652 352.599 328.393L352.572 328.411Z" fill="white"/>
<path d="M351.749 323.424C351.449 325.376 351.883 327.055 352.57 328.411C339.838 327.67 330.881 322.261 324.667 315.907C325.843 312.048 325.842 309.263 325.852 309.101C331.499 315.014 339.709 320.412 351.453 321.984L352.029 322.147C351.925 322.547 351.835 322.997 351.767 323.451L351.749 323.424Z" fill="#FEF153"/>
<path d="M325.853 309.102C325.866 309.269 325.844 312.049 324.669 315.908C314.862 305.881 311.952 293.476 311.952 293.476C312.904 292.358 313.815 291.207 314.703 290.052C314.703 290.052 317.346 300.18 325.853 309.102Z" fill="#FEF153"/>
<path d="M329.999 242.633C330.09 248.104 329.624 253.673 328.5 259.251C328.5 259.251 326.62 260.674 322.673 262.71C323.94 254.681 323.762 246.735 322.367 239.129C324.811 240.136 327.398 241.243 330.089 242.417L330.003 242.61L329.999 242.633Z" fill="#FEF153"/>
<path d="M322.666 262.732C326.613 260.695 328.492 259.272 328.492 259.272C326.163 270.831 321.349 281.235 314.701 290.052C313.808 291.229 312.901 292.357 311.95 293.475C307.278 298.993 301.833 303.816 295.835 307.779C308.946 297.808 318.614 283.188 322.122 265.781C322.326 264.769 322.507 263.753 322.666 262.732Z" fill="#FEF153"/>
<path d="M206.635 304.264C203.432 305.163 197.644 306.922 190.864 309.651C185.535 311.806 179.575 314.537 173.834 317.92L173.731 317.735C173.713 317.357 173.673 316.975 173.633 316.592C171.1 288.139 147.581 283.399 147.581 283.399L147.402 283.012C162.396 275.433 176.955 273.148 182.8 272.501C180.925 267.864 179.513 263.016 178.596 258.034C178.596 258.034 204.8 278.62 254.586 277.374C291.192 276.444 313.072 267.701 322.7 262.691C322.541 263.712 322.36 264.729 322.156 265.741C318.648 283.147 308.98 297.767 295.869 307.739C291.299 310.773 286.411 313.298 281.28 315.283C268.171 320.364 253.459 321.892 238.65 318.907C227.532 316.667 217.466 312.11 208.866 305.86C208.128 305.337 207.422 304.774 206.689 304.228L206.635 304.264Z" fill="#EE7A3A"/>
<path d="M295.81 307.798C301.813 303.812 307.253 299.011 311.93 293.471C311.93 293.471 314.84 305.876 324.646 315.903C322.372 323.354 315.778 334.803 296.493 339.154C284.616 328.593 281.203 315.314 281.203 315.314C286.334 313.33 291.222 310.805 295.792 307.77L295.81 307.798Z" fill="#EE7A3A"/>
<path d="M313.802 197.596C315.771 200.146 317.6 202.808 319.235 205.501C313.205 203.467 308.101 201.946 304.397 200.919C304.329 200.905 304.284 200.896 304.239 200.887C303.933 200.779 303.776 200.747 303.776 200.747C300.296 196.395 293.745 190.09 288.612 186.973C290.816 184.749 292.922 182.435 294.911 180.005C302.127 184.642 308.543 190.803 313.82 197.623L313.802 197.596Z" fill="#FEF153"/>
<path d="M313.522 140.437C310.494 155.459 303.952 168.861 294.919 179.982C292.93 182.413 290.842 184.754 288.62 186.95C267.678 207.887 236.984 218.293 205.746 211.997C204.08 211.662 202.446 211.286 200.821 210.865C248.26 217.313 293.146 185.873 302.732 138.309C312.318 90.7453 282.754 43.833 236.057 31.7304C237.993 32.0035 239.942 32.3262 241.878 32.7163C248.517 34.0543 254.831 36.0758 260.789 38.7041C299.249 55.6524 322.165 97.5507 313.522 140.437Z" fill="#FEF153"/>
<path d="M302.731 138.308C293.149 185.85 248.24 217.285 200.82 210.864L200.798 210.859C196.144 209.664 191.634 208.1 187.35 206.23C184.677 205.083 182.077 203.81 179.571 202.416C148.248 185.15 129.253 150.525 132.701 113.893C132.993 110.699 133.475 107.496 134.119 104.303C139.308 78.5532 154.861 57.5131 175.575 44.6745C193.104 33.8148 214.327 28.8012 236.074 31.7567C282.771 43.8592 312.389 90.5016 302.749 138.335L302.731 138.308ZM232.131 115.468C240.523 116.246 247.946 110.09 248.723 101.705C249.5 93.3192 243.337 85.8989 234.95 85.0979C226.563 84.2969 219.134 90.4758 218.335 98.8566C217.536 107.237 223.722 114.662 232.109 115.463L232.131 115.468ZM201.711 113.245C210.102 114.024 217.526 107.867 218.325 99.4864C219.102 91.1011 212.939 83.6808 204.552 82.8798C196.16 82.1012 188.737 88.2576 187.938 96.6384C187.138 105.019 193.324 112.444 201.711 113.245Z" fill="white"/>
<path d="M248.722 101.705C247.945 110.09 240.499 116.242 232.13 115.468C223.739 114.69 217.58 107.247 218.357 98.8614C219.133 90.476 226.58 84.3242 234.971 85.1027C243.363 85.8813 249.521 93.324 248.745 101.709L248.722 101.705ZM232.939 106.691C236.477 107.03 239.628 104.412 239.966 100.876C240.304 97.3404 237.683 94.1911 234.145 93.8524C230.606 93.5137 227.455 96.1316 227.118 99.6675C226.78 103.203 229.4 106.353 232.939 106.691Z" fill="white"/>
<path d="M239.968 100.876C239.63 104.412 236.502 107.035 232.941 106.692C229.38 106.348 226.781 103.204 227.119 99.6677C227.457 96.1319 230.585 93.5094 234.146 93.8527C237.707 94.1959 240.31 97.3181 239.968 100.876Z" fill="#EE7A3A"/>
<path d="M218.307 99.4591C217.531 107.844 210.084 113.996 201.693 113.218C193.301 112.439 187.143 104.996 187.919 96.6111C188.696 88.2258 196.142 82.0739 204.534 82.8525C212.925 83.631 219.084 91.0738 218.307 99.4591ZM202.524 104.446C206.062 104.784 209.213 102.166 209.551 98.6305C209.889 95.0947 207.268 91.9454 203.73 91.6067C200.191 91.268 197.04 93.8859 196.702 97.4218C196.365 100.958 198.985 104.107 202.524 104.446Z" fill="white"/>
<path d="M173.726 317.758L173.829 317.942C163.65 323.941 154.049 331.952 149.542 342.23C145.265 351.946 144.522 362.491 145.337 372.04C146.8 389.301 153.342 403.327 153.342 403.327C167.921 409.893 172.149 440.045 143.234 450.692C164.317 438.115 161.227 412.546 147.979 406.576C147.979 406.576 131.911 372.423 143.208 344.839C149.464 329.601 161.932 322.121 173.651 316.619C173.691 317.002 173.713 317.357 173.748 317.762L173.726 317.758Z" fill="#FEF153"/>
<path d="M147.958 406.572C161.227 412.546 164.318 438.116 143.212 450.688C136.356 453.215 127.61 454.658 116.723 454.407C81.8169 453.643 72.8067 440.711 71.0459 430.855C69.9331 424.64 71.7092 419.662 71.7092 419.662C79.58 398.969 106.675 399.796 106.675 399.796C98.9783 384.18 94.1639 347.873 115.369 312.152C123.708 298.083 135.683 288.982 147.393 283.058L147.572 283.445C147.572 283.445 171.091 288.185 173.624 316.638C161.888 322.112 149.415 329.615 143.182 344.857C131.862 372.437 147.953 406.594 147.953 406.594L147.958 406.572Z" fill="white"/>
<path d="M209.546 98.6533C209.208 102.189 206.057 104.807 202.519 104.468C198.98 104.13 196.355 101.003 196.697 97.4446C197.04 93.8862 200.163 91.2863 203.724 91.6295C207.285 91.9728 209.888 95.095 209.546 98.6533Z" fill="#EE7A3A"/>
<path d="M187.349 206.231L187.209 206.577C183.901 212.416 181.331 218.778 179.611 225.569C157.753 227.927 140.067 231.313 121.987 237.007C115.387 226.293 118.056 213.631 118.056 213.631C140.087 206.698 162.553 203.761 179.493 202.564L179.57 202.416C182.098 203.815 184.677 205.083 187.349 206.231Z" fill="#F6B35A"/>
<path d="M178.032 233.629C163.839 234.794 145.704 237.271 126.44 242.445C124.628 240.746 123.172 238.908 122.008 237.012C140.089 231.318 157.774 227.932 179.632 225.574C179.352 226.734 179.071 227.895 178.831 229.087C178.527 230.593 178.268 232.109 178.059 233.612L178.032 233.629Z" fill="#FEF153"/>
<path d="M121.989 237.008C123.152 238.904 124.609 240.742 126.421 242.441C118.922 244.44 111.264 246.875 103.584 249.773C103.627 251.42 103.575 253.071 103.352 254.758C101.158 272.383 85.0996 284.896 67.4844 282.703C60.7183 281.878 54.6978 278.979 49.9534 274.747C53.5481 276.782 57.576 278.179 61.9202 278.703C79.5578 280.901 95.6213 268.365 97.7879 250.758C97.9883 249.067 98.0625 247.42 98.0196 245.774C106.318 242.368 114.183 239.483 121.962 237.026L121.989 237.008Z" fill="#FEF153"/>
<path d="M118.056 213.631C118.056 213.631 115.387 226.292 121.987 237.007C114.208 239.464 106.343 242.349 98.0451 245.755C98.0879 247.402 98.0317 249.075 97.8133 250.74C95.6197 268.364 79.5608 280.877 61.9456 278.684C57.6014 278.16 53.5511 276.759 49.9789 274.728C42.4013 267.935 38.1691 257.675 39.5118 246.829C41.6829 229.2 57.7644 216.691 75.3795 218.884C81.0472 219.582 86.1681 221.714 90.4728 224.875C99.2947 220.264 108.633 216.576 118.056 213.631Z" fill="white"/>
<path d="M64.7255 283.832C58.8289 282.644 53.4025 279.936 48.9235 275.897C40.6893 268.527 36.5931 257.592 37.9584 246.634C39.0554 237.705 43.591 229.726 50.7032 224.185C57.8155 218.645 66.6436 216.212 75.602 217.315C80.995 217.981 86.1702 219.96 90.6326 223.036C98.756 218.869 107.833 215.199 117.612 212.115C140.517 204.913 163.852 202.08 179.392 200.976C180.27 200.919 181.007 201.56 181.087 202.442C181.145 203.319 180.504 204.056 179.622 204.135C164.249 205.226 141.157 208.014 118.549 215.136C108.599 218.255 99.3867 222.015 91.2181 226.29C90.6909 226.581 90.0471 226.522 89.5568 226.165C85.3556 223.072 80.4101 221.116 75.2016 220.464C67.0895 219.461 59.0812 221.662 52.636 226.681C46.1908 231.701 42.0884 238.925 41.0871 247.031C39.8582 256.963 43.5776 266.863 51.0337 273.561C55.6927 277.753 61.4433 280.363 67.6827 281.129C84.4291 283.217 99.7173 271.273 101.797 254.562C101.988 253.033 102.053 251.431 102.029 249.811C102.002 249.127 102.427 248.534 103.039 248.283C110.319 245.515 118.053 243.048 126.025 240.91C142.465 236.501 159.902 233.533 177.905 232.059C178.761 231.998 179.543 232.647 179.605 233.502C179.69 234.361 179.018 235.139 178.162 235.2C160.375 236.647 143.105 239.602 126.84 243.953C119.364 245.957 112.08 248.28 105.192 250.847C105.195 252.228 105.103 253.614 104.93 254.936C102.641 273.384 85.7709 286.553 67.2868 284.255C66.418 284.15 65.5582 284 64.7255 283.832Z" fill="#EE7A3A"/>
<path d="M182.48 274.099C182.074 274.017 181.701 273.778 181.449 273.4C181.395 273.319 181.346 273.215 181.315 273.139C179.394 268.375 177.96 263.406 177.03 258.374C175.506 250.133 175.323 241.742 176.482 233.434C176.705 231.864 176.973 230.303 177.272 228.819C177.508 227.649 177.775 226.44 178.087 225.239C179.789 218.421 182.391 211.901 185.839 205.833C186.272 205.078 187.241 204.805 187.997 205.238C188.753 205.671 189.026 206.639 188.593 207.394C185.289 213.211 182.809 219.474 181.166 226C180.881 227.183 180.604 228.32 180.378 229.445C180.088 230.884 179.834 232.377 179.625 233.88C178.511 241.846 178.671 249.882 180.142 257.808C181.041 262.646 182.421 267.417 184.265 271.978C184.571 272.671 184.308 273.508 183.641 273.912C183.29 274.145 182.88 274.203 182.498 274.126L182.48 274.099Z" fill="#EE7A3A"/>
<path d="M238.281 320.495C227.186 318.259 216.94 313.783 207.871 307.181C207.134 306.658 206.383 306.086 205.654 305.518C204.966 304.981 204.837 303.996 205.396 303.313C205.932 302.625 206.914 302.519 207.602 303.055C208.313 303.596 209.024 304.137 209.716 304.651C218.416 310.991 228.23 315.286 238.898 317.436C252.942 320.267 267.383 319.035 280.645 313.891C285.649 311.951 290.434 309.476 294.918 306.518C295.648 306.033 296.616 306.228 297.101 306.958C297.587 307.688 297.392 308.655 296.662 309.139C291.989 312.223 286.992 314.82 281.784 316.836C267.937 322.212 252.879 323.484 238.25 320.535L238.281 320.495Z" fill="#EE7A3A"/>
<path d="M295.5 309.327C295.095 309.246 294.744 309.011 294.488 308.655C294.002 307.926 294.197 306.959 294.927 306.474C300.844 302.565 306.15 297.854 310.705 292.453C311.656 291.334 312.563 290.206 313.397 289.087C320.14 280.149 324.692 269.997 326.922 258.933C328.005 253.558 328.499 248.088 328.398 242.661C328.386 241.793 329.071 241.065 329.94 241.053C330.809 241.041 331.537 241.726 331.55 242.595C331.65 248.255 331.129 253.977 330.005 259.554C327.68 271.091 322.952 281.652 315.92 290.977C315.054 292.136 314.116 293.304 313.106 294.481C308.344 300.098 302.813 304.997 296.653 309.068C296.301 309.302 295.864 309.377 295.482 309.3L295.5 309.327Z" fill="#EE7A3A"/>
<path d="M218.997 276.029C192.372 270.663 178.402 259.914 177.61 259.31C176.922 258.773 176.816 257.792 177.352 257.105C177.889 256.417 178.871 256.311 179.559 256.847C179.883 257.1 206.024 277.065 254.517 275.839C290.7 274.917 312.283 266.372 321.938 261.345C325.678 259.407 327.526 258.024 327.548 258.029C328.238 257.512 329.242 257.645 329.759 258.334C330.276 259.023 330.144 260.026 329.454 260.542C329.373 260.596 327.412 262.073 323.412 264.145C313.522 269.29 291.426 278.059 254.608 278.993C240.956 279.331 229.076 278.083 218.993 276.051L218.997 276.029Z" fill="#EE7A3A"/>
<path d="M98.115 454.12C77.5443 449.974 71.0383 439.84 69.4875 431.15C68.3211 424.619 70.129 419.367 70.2194 419.151C76.9787 401.417 97.1758 398.701 104.236 398.299C100.291 389.055 98.2052 376.279 98.6049 363.488C99.1783 345.42 104.497 327.395 114.005 311.362C121.419 298.862 132.401 288.882 146.687 281.675C161.966 273.966 176.908 271.642 182.613 270.99C184.361 270.803 185.356 270.747 185.401 270.756C186.274 270.721 187.007 271.384 187.065 272.261C187.099 273.134 186.437 273.866 185.559 273.923C185.559 273.923 184.613 273.967 182.96 274.149C177.426 274.765 162.916 277.036 148.106 284.512C134.365 291.455 123.816 301.03 116.718 313.009C96.2489 347.521 100.343 383.449 108.089 399.169C108.341 399.664 108.295 400.24 108.01 400.721C107.708 401.175 107.181 401.466 106.645 401.452C106.389 401.447 80.5903 400.928 73.1939 420.312C73.1939 420.312 71.5938 424.998 72.6038 430.678C73.9578 438.369 79.9072 447.314 98.7224 451.106C103.764 452.122 109.702 452.757 116.743 452.913C126.815 453.141 135.542 451.904 142.651 449.288C160.512 442.708 162.875 429.704 163.048 424.427C163.362 415.785 159.082 407.737 152.66 404.852C152.318 404.689 152.044 404.424 151.878 404.086C151.6 403.491 145.193 389.61 143.744 372.281C142.764 360.757 144.228 350.474 148.08 341.702C152.144 332.458 160.539 324.04 173.003 316.7C178.131 313.685 183.92 310.873 190.245 308.31C197.254 305.487 203.236 303.697 206.191 302.865C207.88 302.386 208.839 302.158 208.889 302.145C209.726 301.939 210.577 302.485 210.783 303.322C210.989 304.159 210.443 305.009 209.605 305.214C209.605 305.214 208.646 305.442 207.033 305.89C204.155 306.69 198.272 308.453 191.416 311.214C185.244 313.714 179.586 316.459 174.593 319.384C162.688 326.392 154.744 334.316 150.942 342.958C147.306 351.235 145.92 361.018 146.846 371.993C148.114 386.969 153.325 399.58 154.478 402.223C161.718 405.812 166.492 414.894 166.164 424.54C165.954 430.465 163.35 445.012 143.691 452.259C136.2 455.032 127.09 456.309 116.617 456.094C109.436 455.933 103.291 455.28 98.0474 454.223L98.115 454.12Z" fill="#EE7A3A"/>
<path d="M415.313 323.879C397.06 320.201 385.216 302.391 388.891 284.153C389.163 282.803 389.525 281.472 389.95 280.177C383.199 274.745 375.876 269.478 368.157 264.552C356.226 256.929 343.201 249.974 329.445 243.855C326.885 242.731 324.297 241.624 321.768 240.576C307.926 234.885 298.569 232.273 298.479 232.255C297.638 232.015 297.157 231.146 297.37 230.323C297.61 229.482 298.457 228.998 299.303 229.215C299.393 229.233 308.925 231.903 322.943 237.654C325.517 238.711 328.127 239.822 330.705 240.973C344.592 247.142 357.765 254.173 369.84 261.896C377.996 267.096 385.728 272.657 392.785 278.432C393.306 278.864 393.495 279.558 393.273 280.192C392.717 281.671 392.292 283.2 391.979 284.752C388.648 301.281 399.396 317.442 415.939 320.776C432.481 324.11 448.65 313.374 451.981 296.844C455.312 280.315 444.559 264.177 428.017 260.843C422.886 259.809 417.555 260.115 412.595 261.713C412.019 261.901 411.375 261.725 410.971 261.292C403.885 253.803 395.425 246.622 385.862 239.92C362.457 223.572 336.438 212.993 318.724 206.989C312.343 204.837 307.167 203.326 303.953 202.421C303.112 202.181 302.631 201.312 302.848 200.466C303.088 199.625 303.958 199.145 304.804 199.363C308.063 200.277 313.283 201.797 319.728 203.985C337.64 210.052 363.96 220.763 387.675 237.314C397.117 243.92 405.5 251.016 412.586 258.388C417.784 256.885 423.313 256.642 428.647 257.717C446.9 261.396 458.745 279.205 455.069 297.443C451.393 315.682 433.575 327.513 415.322 323.834L415.313 323.879Z" fill="#EE7A3A"/>
<path d="M303.909 202.412C303.909 202.412 303.841 202.398 303.796 202.389C299.691 201.257 297.297 200.705 297.274 200.7C296.419 200.528 295.889 199.672 296.083 198.822C296.256 197.967 297.089 197.433 297.963 197.633C298.053 197.651 300.447 198.204 304.637 199.376C305.479 199.616 305.96 200.485 305.742 201.33C305.512 202.126 304.71 202.62 303.922 202.461L303.909 202.412Z" fill="#EE7A3A"/>
<path d="M126.111 243.969C125.841 243.915 125.562 243.789 125.347 243.581C123.534 241.882 121.957 239.949 120.649 237.837C113.802 226.722 116.395 213.858 116.508 213.296C116.68 212.441 117.541 211.889 118.369 212.08C119.224 212.252 119.759 213.085 119.587 213.94C119.56 214.075 117.148 226.156 123.326 236.177C124.489 238.073 125.878 239.78 127.497 241.277C128.127 241.872 128.162 242.861 127.562 243.513C127.174 243.926 126.602 244.092 126.084 243.987L126.111 243.969Z" fill="#EE7A3A"/>
<path d="M368.696 264.8C367.863 264.632 367.319 263.844 367.442 263.003C367.555 262.324 370.247 246.297 381.521 239.396C382.99 238.498 384.562 237.786 386.188 237.271C387.013 237.016 387.904 237.476 388.155 238.322C388.41 239.146 387.95 240.036 387.103 240.287C385.729 240.712 384.391 241.308 383.161 242.067C373.09 248.228 370.562 263.327 370.53 263.485C370.403 264.348 369.582 264.932 368.723 264.782C368.723 264.782 368.678 264.773 368.655 264.769L368.696 264.8Z" fill="#EE7A3A"/>
<path d="M347.974 322.991C338.882 321.158 331.058 316.867 324.7 310.18C324.102 309.544 324.117 308.541 324.753 307.944C325.388 307.346 326.392 307.361 326.99 307.997C333.582 314.918 341.897 319.098 351.656 320.41C352.52 320.537 353.136 321.317 353.009 322.18C352.904 323.049 352.102 323.659 351.238 323.532C350.144 323.381 349.054 323.209 347.974 322.991Z" fill="#EE7A3A"/>
<path d="M325.543 310.631C325.227 310.567 324.953 310.418 324.719 310.184C316.037 301.086 313.291 290.891 313.17 290.445C312.941 289.603 313.442 288.745 314.307 288.521C315.149 288.293 316.008 288.794 316.232 289.658C316.268 289.829 318.925 299.538 327.009 308.001C327.607 308.637 327.593 309.64 326.957 310.237C326.578 310.606 326.038 310.731 325.565 310.635L325.543 310.631Z" fill="#EE7A3A"/>
<path d="M319.622 352.216C310.372 350.352 302.295 346.384 295.482 340.33C283.384 329.584 279.859 316.283 279.715 315.716C279.487 314.874 280.01 314.02 280.853 313.792C281.69 313.587 282.55 314.088 282.778 314.929C282.818 315.078 286.25 327.915 297.597 337.972C306.514 345.9 317.815 350.027 331.187 350.264C332.051 350.275 332.748 351 332.738 351.864C332.728 352.728 332.002 353.424 331.137 353.414C327.126 353.331 323.295 352.933 319.649 352.198L319.622 352.216Z" fill="#EE7A3A"/>
<path d="M296.201 340.71C295.615 340.592 295.121 340.141 294.968 339.502C294.767 338.642 295.308 337.815 296.169 337.614C314.134 333.536 320.762 323.311 323.168 315.441C324.285 311.758 324.275 309.135 324.279 309.112C324.302 309 324.28 308.878 324.298 308.788C324.47 307.934 325.308 307.377 326.163 307.55C326.929 307.704 327.468 308.398 327.431 309.163C327.421 309.675 327.363 312.519 326.188 316.377C324.031 323.478 317.346 336.079 296.88 340.706C296.66 340.756 296.426 340.755 296.223 340.714L296.201 340.71Z" fill="#EE7A3A"/>
<path d="M173.39 319.304C172.715 319.168 172.176 318.592 172.136 317.858C172.119 317.48 172.074 317.12 172.052 316.765C169.648 289.882 148.164 285.154 147.263 284.973C146.408 284.801 145.851 283.963 146.023 283.108C146.195 282.254 147.034 281.697 147.889 281.87C148.136 281.92 172.582 287.174 175.204 316.464C175.244 316.846 175.262 317.224 175.297 317.629C175.355 318.507 174.714 319.244 173.836 319.301C173.692 319.318 173.557 319.291 173.422 319.264L173.39 319.304Z" fill="#EE7A3A"/>
<path d="M205.436 213.526C203.793 213.195 202.114 212.81 200.467 212.384C200.467 212.384 200.422 212.375 200.399 212.37C195.746 211.175 191.124 209.588 186.709 207.669C184.059 206.526 181.395 205.217 178.804 203.782C146.365 185.894 127.659 150.531 131.121 113.715C131.427 110.454 131.927 107.161 132.575 103.945C137.624 78.8924 152.993 56.7856 174.754 43.2918C193.089 31.9161 214.946 27.241 236.279 30.1597C238.305 30.451 240.299 30.7827 242.212 31.1682C248.851 32.5063 255.301 34.555 261.434 37.242C280.536 45.6552 296.441 60.5151 306.236 79.0815C316.161 97.9315 319.293 119.812 315.082 140.704C312.114 155.434 305.562 169.349 296.155 180.933C294.161 183.386 292.015 185.785 289.761 188.022C267.642 210.149 236.121 219.663 205.468 213.485L205.436 213.526ZM201.155 209.317C201.155 209.317 201.201 209.326 201.223 209.33C202.848 209.751 204.459 210.123 206.057 210.445C235.675 216.414 266.124 207.222 287.485 185.832C289.658 183.649 291.737 181.353 293.667 178.98C302.764 167.779 309.098 154.359 311.967 140.123C320.244 99.0585 298.458 57.0135 260.147 40.1419C254.23 37.5452 247.978 35.5599 241.564 34.2671C239.718 33.8952 237.792 33.5771 235.834 33.2995C215.225 30.5034 194.107 34.9997 176.389 45.985C155.061 59.1916 140.608 80.0085 135.654 104.589C135.028 107.692 134.551 110.873 134.268 114.022C130.916 149.596 149.002 183.734 180.343 201.027C182.853 202.398 185.409 203.662 187.996 204.769C192.262 206.612 196.686 208.135 201.183 209.299L201.155 209.317Z" fill="#EE7A3A"/>
<path d="M199.762 114.538C196.003 113.78 192.638 111.768 190.17 108.79C187.307 105.335 185.962 100.968 186.373 96.4876C186.784 92.007 188.933 87.9702 192.39 85.1098C195.847 82.2494 200.221 80.8843 204.7 81.319C213.943 82.1754 220.74 90.4021 219.885 99.6377C219.031 108.873 210.796 115.685 201.558 114.806C200.959 114.756 200.347 114.656 199.762 114.538ZM205.831 84.6593C205.358 84.564 204.881 84.4913 204.399 84.441C200.766 84.1066 197.221 85.1942 194.409 87.5292C191.596 89.8643 189.858 93.1414 189.525 96.7717C189.191 100.402 190.28 103.945 192.618 106.756C194.956 109.567 198.236 111.305 201.869 111.639C209.387 112.335 216.053 106.799 216.743 99.3086C217.405 92.3044 212.61 86.0021 205.835 84.6368L205.831 84.6593Z" fill="#EE7A3A"/>
<path d="M201.524 105.907C199.724 105.544 198.136 104.592 196.949 103.159C195.573 101.501 194.937 99.4306 195.133 97.2938C195.553 92.8852 199.461 89.6476 203.873 90.0687C206.012 90.2657 207.937 91.2857 209.313 92.9436C210.688 94.6016 211.325 96.6723 211.128 98.8091C210.932 100.946 209.912 102.87 208.253 104.244C206.594 105.618 204.522 106.254 202.384 106.057C202.087 106.02 201.812 105.988 201.52 105.929L201.524 105.907ZM204.094 93.2726C203.914 93.2363 203.756 93.2045 203.572 93.1907C202.284 93.0716 201.01 93.47 200 94.2962C198.99 95.1224 198.381 96.2868 198.258 97.5959C198.139 98.8824 198.538 100.156 199.365 101.166C200.192 102.175 201.38 102.789 202.667 102.908C203.955 103.027 205.23 102.628 206.239 101.802C207.249 100.976 207.858 99.8116 207.982 98.5025C208.1 97.2159 207.701 95.942 206.874 94.9328C206.16 94.0633 205.174 93.4903 204.094 93.2726Z" fill="#EE7A3A"/>
<path d="M230.229 116.769C221.902 115.091 215.992 107.347 216.818 98.7146C217.229 94.234 219.378 90.1972 222.835 87.3368C226.292 84.4764 230.661 83.1337 235.145 83.5459C239.629 83.9582 243.67 86.1064 246.533 89.562C249.396 93.0176 250.741 97.384 250.33 101.865C249.476 111.1 241.245 117.89 232.026 117.038C231.427 116.987 230.837 116.892 230.252 116.774L230.229 116.769ZM236.298 86.8908C235.825 86.7955 235.326 86.7182 234.844 86.6679C227.326 85.9718 220.664 91.486 219.969 98.9987C219.275 106.511 224.818 113.175 232.313 113.866C239.809 114.558 246.494 109.048 247.188 101.536C247.521 97.9052 246.432 94.3625 244.095 91.5512C242.076 89.1318 239.359 87.5077 236.298 86.8908Z" fill="#EE7A3A"/>
<path d="M231.964 108.156C228.003 107.358 225.189 103.655 225.573 99.5429C225.769 97.4061 226.79 95.4821 228.448 94.108C230.107 92.7339 232.179 92.0984 234.317 92.2954C236.456 92.4923 238.381 93.5123 239.757 95.1702C241.133 96.8282 241.769 98.8989 241.573 101.036C241.153 105.444 237.245 108.682 232.828 108.283C232.554 108.251 232.257 108.215 231.986 108.16L231.964 108.156ZM234.511 95.5171C234.331 95.4808 234.174 95.4491 233.989 95.4353C232.701 95.3162 231.427 95.7146 230.417 96.5408C229.407 97.367 228.798 98.5313 228.675 99.8404C228.419 102.504 230.397 104.891 233.062 105.148C234.35 105.267 235.624 104.868 236.634 104.042C237.644 103.216 238.253 102.052 238.376 100.743C238.495 99.456 238.096 98.182 237.269 97.1729C236.554 96.3033 235.569 95.7303 234.489 95.5126L234.511 95.5171Z" fill="#EE7A3A"/>
<path d="M212.704 141.555C195.622 138.112 190.163 122.783 190.104 122.607C189.826 121.779 190.264 120.884 191.093 120.607C191.922 120.329 192.817 120.767 193.1 121.573C193.338 122.253 199.048 138.077 218.038 139.026C236.911 139.974 242.278 126.476 242.486 125.91C242.789 125.105 243.717 124.683 244.522 124.986C245.328 125.289 245.755 126.194 245.447 127.021C245.393 127.174 239.113 143.226 217.872 142.175C216.04 142.086 214.329 141.859 212.709 141.532L212.704 141.555Z" fill="#EE7A3A"/>
<path d="M331.046 361.54C330.641 361.458 330.29 361.223 330.034 360.868C329.926 360.705 327.365 356.679 330.06 351.325C330.453 350.538 330.936 349.769 331.508 349.019C334.566 345.002 339.078 344.694 341.851 344.995C341.539 342.592 341.544 338.849 343.715 335.402C345.754 332.138 349.366 331.065 352.172 330.741C351.821 330.272 351.462 329.732 351.161 329.133C350.182 327.25 349.86 325.243 350.178 323.201C350.292 322.639 350.391 322.144 350.478 321.717C351.953 316.023 356.242 314.033 356.422 313.952C357.219 313.598 358.156 313.95 358.51 314.747C358.865 315.544 358.517 316.457 357.737 316.838C357.584 316.901 354.62 318.363 353.543 322.545C353.448 322.901 353.375 323.26 353.307 323.715C353.102 325.078 353.321 326.432 353.977 327.711C355.041 329.751 356.836 330.955 356.859 330.96C357.479 331.366 357.749 332.122 357.491 332.819C357.233 333.516 356.54 333.938 355.81 333.838C355.743 333.824 348.945 333.039 346.396 337.089C343.711 341.345 345.375 346.454 345.388 346.504C345.581 347.058 345.432 347.683 345.017 348.114C344.602 348.545 343.963 348.697 343.413 348.516C343.17 348.444 337.302 346.653 334.023 350.953C333.572 351.564 333.17 352.162 332.886 352.76C331.044 356.437 332.648 359.054 332.692 359.18C333.155 359.905 332.933 360.89 332.208 361.353C331.856 361.586 331.424 361.639 331.041 361.562L331.046 361.54Z" fill="#EE7A3A"/>
<path d="M317.877 206.327C316.264 203.638 314.471 201.03 312.556 198.561C312.538 198.534 312.498 198.503 312.484 198.453C307.136 191.525 300.746 185.58 294.047 181.281C293.323 180.807 293.099 179.826 293.573 179.102C294.047 178.379 295.028 178.156 295.753 178.629C302.784 183.135 309.466 189.373 315.058 196.608C315.076 196.635 315.116 196.667 315.13 196.716C317.08 199.239 318.905 201.923 320.572 204.693L317.877 206.327Z" fill="#EE7A3A"/>
</svg>
