<svg width="58" height="15" viewBox="0 0 58 15" fill="none" xmlns="http://www.w3.org/2000/svg">
<path d="M7.80203 14.4671C11.5646 14.4671 14.6148 11.4169 14.6148 7.65431C14.6148 3.89173 11.5646 0.841553 7.80203 0.841553C4.03945 0.841553 0.989273 3.89173 0.989273 7.65431C0.989273 11.4169 4.03945 14.4671 7.80203 14.4671Z" fill="white"/>
<path d="M29.4946 14.4671C33.2572 14.4671 36.3074 11.4169 36.3074 7.65431C36.3074 3.89173 33.2572 0.841553 29.4946 0.841553C25.732 0.841553 22.6819 3.89173 22.6819 7.65431C22.6819 11.4169 25.732 14.4671 29.4946 14.4671Z" fill="white"/>
<path d="M51.1872 14.4671C54.9498 14.4671 58 11.4169 58 7.65431C58 3.89173 54.9498 0.841553 51.1872 0.841553C47.4247 0.841553 44.3745 3.89173 44.3745 7.65431C44.3745 11.4169 47.4247 14.4671 51.1872 14.4671Z" fill="white"/>
</svg>
