<svg width="332" height="95" viewBox="0 0 332 95" fill="none" xmlns="http://www.w3.org/2000/svg">
<path d="M13.1371 22.9344H105.102C112.351 22.9344 118.239 28.8553 118.239 36.1444V76.6796H13.1371C5.88815 76.6796 0 70.7588 0 63.4696V36.1497C0 28.8605 5.88815 22.9397 13.1371 22.9397V22.9344Z" fill="#ED7A3A"/>
<path d="M323.367 31.8918H169.297V84.7412H323.367V31.8918Z" fill="white"/>
<path fill-rule="evenodd" clip-rule="evenodd" d="M168.401 31.8583C168.401 31.3821 168.79 30.9961 169.27 30.9961H323.394C323.873 30.9961 324.262 31.3821 324.262 31.8583V84.7748C324.262 85.251 323.873 85.637 323.394 85.637H169.27C168.79 85.637 168.401 85.251 168.401 84.7748V31.8583ZM170.139 32.7205V83.9126H322.525V32.7205H170.139Z" fill="#ED7A3A"/>
<path d="M29.5598 58.5154C29.5598 59.917 29.1059 61.0571 28.2036 61.9305C27.3013 62.8039 26.1235 63.2432 24.6755 63.2432H12.5405V57.4223H22.8655V37.2664H29.549V58.5206L29.5598 58.5154Z" fill="white"/>
<path d="M55.5366 63.2432H37.8105C36.4267 63.2432 35.3011 62.8041 34.4388 61.931C33.5765 61.058 33.1428 59.9235 33.1428 58.5173V41.9923C33.1428 40.5912 33.5765 39.4516 34.4388 38.5785C35.3011 37.7055 36.4216 37.2664 37.8105 37.2664H55.5366V43.0901H39.5351V47.2305H55.0254V52.5681H39.5351V57.4194H55.5366V63.238V63.2432Z" fill="white"/>
<path d="M74.3476 58.5154C74.3476 59.917 73.8937 61.0571 72.9914 61.9305C72.0891 62.8039 70.9113 63.2432 69.4633 63.2432H57.3283V57.4223H67.6533V37.2664H74.3368V58.5206L74.3476 58.5154Z" fill="white"/>
<path d="M100.324 58.5163C100.324 59.9176 99.8961 61.0575 99.045 61.9307C98.1939 62.804 97.0829 63.2432 95.717 63.2432H82.5376C81.1717 63.2432 80.0607 62.804 79.2096 61.9307C78.3585 61.0575 77.9304 59.9229 77.9304 58.5163V37.2664H84.2347V57.4183H94.0097V37.2664H100.314V58.5163H100.324Z" fill="white"/>
<path d="M174.672 6.81091H111.073V70.4094H174.672V6.81091Z" fill="white"/>
<path fill-rule="evenodd" clip-rule="evenodd" d="M110.178 6.78638C110.178 6.30508 110.568 5.91492 111.049 5.91492H174.696C175.177 5.91492 175.567 6.30508 175.567 6.78638V70.4334C175.567 70.9147 175.177 71.3049 174.696 71.3049H111.049C110.568 71.3049 110.178 70.9147 110.178 70.4334V6.78638ZM111.92 7.65783V69.5619H173.825V7.65783H111.92Z" fill="#ED7A3A"/>
<path d="M174.224 13.0809C177.439 13.0809 180.046 10.4742 180.046 7.25855C180.046 4.04293 177.439 1.43616 174.224 1.43616C171.008 1.43616 168.401 4.04293 168.401 7.25855C168.401 10.4742 171.008 13.0809 174.224 13.0809Z" fill="white"/>
<path fill-rule="evenodd" clip-rule="evenodd" d="M174.224 2.29893C171.485 2.29893 169.264 4.51948 169.264 7.25867C169.264 9.99786 171.485 12.2184 174.224 12.2184C176.963 12.2184 179.184 9.99786 179.184 7.25867C179.184 4.51948 176.963 2.29893 174.224 2.29893ZM167.506 7.25867C167.506 3.54834 170.514 0.540527 174.224 0.540527C177.934 0.540527 180.942 3.54834 180.942 7.25867C180.942 10.969 177.934 13.9768 174.224 13.9768C170.514 13.9768 167.506 10.969 167.506 7.25867Z" fill="#ED7A3A"/>
<path fill-rule="evenodd" clip-rule="evenodd" d="M177.805 7.49293C177.817 7.95552 177.417 8.33941 176.912 8.35037L171.575 8.46619C171.07 8.47715 170.651 8.11103 170.639 7.64843C170.627 7.18584 171.027 6.80195 171.532 6.79099L176.869 6.67517C177.374 6.66421 177.793 7.03033 177.805 7.49293Z" fill="#ED7A3A"/>
<path fill-rule="evenodd" clip-rule="evenodd" d="M174.144 3.98806C174.607 3.97607 174.99 4.376 175.001 4.88132L175.117 10.2169C175.128 10.7222 174.762 11.1416 174.299 11.1536C173.837 11.1655 173.453 10.7656 173.442 10.2603L173.326 4.92471C173.315 4.41939 173.681 4.00004 174.144 3.98806Z" fill="#ED7A3A"/>
<path d="M162.131 60.5559H126.149V46.7306H135.076V48.6159H153.204V46.7306H162.131V60.5559ZM152.156 45.6084H138.082V40.4464H144.095V36.8105L141.316 39.5486H135.942V45.6084H127.926V39.5486H121.822V34.1622H144.095V21.055H152.156V45.6084ZM135.031 33.0849H130.248C125.329 33.0849 122.187 30.7956 122.187 26.666C122.187 22.5363 125.329 20.2471 130.248 20.2471H134.94C139.859 20.2471 143.002 22.5363 143.002 26.666C143.002 30.7956 139.95 33.0849 135.031 33.0849ZM162.131 45.6084H153.978V20.9204H162.131V45.6084ZM153.204 55.3041V53.5086H135.076V55.3041H153.204ZM134.029 25.5438H131.159C130.248 25.5438 129.747 25.9478 129.747 26.666C129.747 27.3842 130.248 27.7881 131.159 27.7881H134.029C134.94 27.7881 135.441 27.3842 135.441 26.666C135.441 25.9478 134.94 25.5438 134.029 25.5438Z" fill="#ED7A3A"/>
<path d="M317.992 77.5753L320.321 93.6989L324.283 88.6814L330.533 87.7106L317.992 77.5753Z" fill="white"/>
<path fill-rule="evenodd" clip-rule="evenodd" d="M317.531 76.7969C317.839 76.6167 318.224 76.6459 318.503 76.8703L331.101 87.0259C331.371 87.2434 331.488 87.6026 331.399 87.9406C331.311 88.2787 331.033 88.5313 330.692 88.5841L324.748 89.5051L320.979 94.2657C320.763 94.5384 320.408 94.6554 320.075 94.5636C319.743 94.4719 319.495 94.1888 319.445 93.8427L317.106 77.6869C317.054 77.3299 317.222 76.977 317.531 76.7969ZM319.14 79.6306L320.872 91.5919L323.607 88.1364C323.743 87.9647 323.938 87.851 324.152 87.8178L328.467 87.1493L319.14 79.6306Z" fill="#ED7A3A"/>
<path d="M133.008 35.475C127.664 35.475 123.26 31.6308 122.763 26.5342C122.239 21.1258 126.408 16.3154 132.062 15.8093C132.383 15.7787 132.709 15.7684 133.029 15.7684C138.374 15.7684 142.778 19.6126 143.275 24.7092C143.531 27.3317 142.703 29.8876 140.945 31.912C139.186 33.9363 136.712 35.1887 133.97 35.429C133.649 35.4597 133.323 35.4699 133.003 35.4699L133.008 35.475Z" fill="white"/>
<path d="M132.584 16.4196C137.282 16.4196 141.287 20 141.732 24.7653C142.203 29.8255 138.483 34.3062 133.422 34.777C133.133 34.8029 132.843 34.8184 132.558 34.8184C127.86 34.8184 123.856 31.238 123.411 26.4727C122.94 21.4125 126.66 16.9318 131.72 16.461C132.01 16.4351 132.3 16.4196 132.584 16.4196ZM132.584 14.8726C132.248 14.8726 131.912 14.8881 131.575 14.9191C128.719 15.183 126.132 16.5489 124.301 18.7583C122.469 20.9676 121.605 23.7564 121.869 26.6176C122.386 32.1745 126.981 36.3706 132.558 36.3706C132.895 36.3706 133.231 36.3551 133.567 36.3241C136.423 36.0602 139.01 34.6942 140.842 32.4849C142.674 30.2756 143.538 27.4868 143.274 24.6256C142.756 19.0687 138.162 14.8726 132.584 14.8726Z" fill="#ED7A3A"/>
<path d="M133.019 34.5792C136.235 34.5792 138.842 30.3683 138.842 25.1738C138.842 19.9794 136.235 15.7684 133.019 15.7684C129.804 15.7684 127.197 19.9794 127.197 25.1738C127.197 30.3683 129.804 34.5792 133.019 34.5792Z" fill="white"/>
<path fill-rule="evenodd" clip-rule="evenodd" d="M129.689 19.2925C128.78 20.8867 128.202 23.1232 128.202 25.6217C128.202 28.1202 128.78 30.3567 129.689 31.9509C130.605 33.5564 131.798 34.4273 133.019 34.4273C134.24 34.4273 135.434 33.5564 136.349 31.9509C137.258 30.3567 137.837 28.1202 137.837 25.6217C137.837 23.1232 137.258 20.8867 136.349 19.2925C135.434 17.687 134.24 16.8161 133.019 16.8161C131.798 16.8161 130.605 17.687 129.689 19.2925ZM128.826 18.7571C129.835 16.986 131.302 15.7684 133.019 15.7684C134.736 15.7684 136.203 16.986 137.213 18.7571C138.229 20.5395 138.842 22.9677 138.842 25.6217C138.842 28.2757 138.229 30.704 137.213 32.4863C136.203 34.2575 134.736 35.475 133.019 35.475C131.302 35.475 129.835 34.2575 128.826 32.4863C127.809 30.704 127.197 28.2757 127.197 25.6217C127.197 22.9677 127.809 20.5395 128.826 18.7571Z" fill="#ED7A3A"/>
<path fill-rule="evenodd" clip-rule="evenodd" d="M133.019 15.7684C133.267 15.7684 133.467 16.003 133.467 16.2923V34.9512C133.467 35.2405 133.267 35.475 133.019 35.475C132.772 35.475 132.571 35.2405 132.571 34.9512V16.2923C132.571 16.003 132.772 15.7684 133.019 15.7684Z" fill="#ED7A3A"/>
<path fill-rule="evenodd" clip-rule="evenodd" d="M122.718 25.1737C122.718 24.9264 122.953 24.7258 123.242 24.7258H141.901C142.19 24.7258 142.425 24.9264 142.425 25.1737C142.425 25.4211 142.19 25.6216 141.901 25.6216H123.242C122.953 25.6216 122.718 25.4211 122.718 25.1737Z" fill="#ED7A3A"/>
<path fill-rule="evenodd" clip-rule="evenodd" d="M132.571 30.4055C130.053 30.4055 127.802 31.2866 126.23 32.6666C126.003 32.8661 125.68 32.8131 125.509 32.5482C125.338 32.2833 125.383 31.9068 125.611 31.7073C127.382 30.1519 129.858 29.2045 132.571 29.2045C135.285 29.2045 137.761 30.1519 139.532 31.7073C139.759 31.9068 139.805 32.2833 139.634 32.5482C139.463 32.8131 139.14 32.8661 138.912 32.6666C137.341 31.2866 135.09 30.4055 132.571 30.4055Z" fill="#ED7A3A"/>
<path fill-rule="evenodd" clip-rule="evenodd" d="M125.509 18.695C125.68 18.4301 126.003 18.377 126.23 18.5765C127.802 19.9565 130.053 20.8377 132.571 20.8377C135.09 20.8377 137.341 19.9565 138.912 18.5765C139.14 18.377 139.463 18.4301 139.634 18.695C139.805 18.9599 139.759 19.3364 139.532 19.5359C137.761 21.0913 135.285 22.0387 132.571 22.0387C129.858 22.0387 127.382 21.0913 125.611 19.5359C125.383 19.3364 125.338 18.9599 125.509 18.695Z" fill="#ED7A3A"/>
<path d="M213.323 64.8948H206.812V55.5548H201.73C201.365 55.9231 200.9 56.2579 200.369 56.4922C195.851 58.6682 191.301 60.6768 186.717 62.5849L184.525 57.8647C186.717 56.9943 188.876 56.1239 190.969 55.1866H185.555V50.5334H196.549V48.9265H186.086V43.9719H203.059V49.9308H206.812V43.5367H213.323V64.8948ZM213.489 73.0966H188.212V62.9197H194.722V67.6064H213.489V73.0966Z" fill="#ED7A3A"/>
<path d="M245.049 73.0966H238.539V68.0081L235.716 70.8536H216.617V65.2296H219.075V49.6295H216.783V44.0389H236.214V49.6295H234.088V65.2296H238.539V59.8398H235.251V53.8475H238.539V43.5367H245.049V73.0966ZM227.778 65.2296V49.6295H225.386V65.2296H227.778Z" fill="#ED7A3A"/>
<path d="M267.277 61.7145H248.842V50.3325H258.508V48.4913H248.842V43.7041H265.018V54.8518H255.353V56.7265H267.277V61.7145ZM276.61 73.0966H251.068V63.0201H257.611V68.0751H276.61V73.0966ZM276.444 65.0622H269.934V54.584H266.181V48.96H269.934V43.5367H276.444V65.0622Z" fill="#ED7A3A"/>
<path d="M309.035 72.0253H279.739V66.4013H309.035V72.0253ZM309.035 59.1368L305.414 63.8905C301.727 61.4467 298.14 58.936 294.387 55.6887C290.633 58.936 287.013 61.4467 283.359 63.8905L279.739 59.1368C282.728 56.9274 286.581 53.948 289.371 51.1359C290.434 50.0647 290.766 49.2278 290.766 47.8217V44.0389H298.007V47.8217C298.007 49.2278 298.339 50.0647 299.402 51.1359C302.192 53.948 306.045 56.9274 309.035 59.1368Z" fill="#ED7A3A"/>
</svg>
