<svg width="361" height="234" viewBox="0 0 361 234" fill="none" xmlns="http://www.w3.org/2000/svg">
<path d="M71.9612 10.8778L326.924 79.1949C343.889 83.7406 353.973 101.192 349.431 118.144L319.363 230.358L33.6638 153.806C16.6988 149.26 6.61446 131.809 11.1567 114.857L32.9951 33.3548C37.5374 16.4029 54.9962 6.33205 71.9612 10.8778Z" fill="#EE7A3A"/>
<path d="M318.798 232.463L37.5341 157.099C16.9987 151.596 4.75462 130.408 10.2528 109.888L29.7221 37.2277C35.2203 16.7081 56.3961 4.47445 76.9537 9.98284L323.068 75.929C343.603 81.4314 355.848 102.62 350.349 123.14L321.469 230.923C321.16 232.075 319.979 232.756 318.826 232.447L318.798 232.463ZM75.8315 14.171C57.6025 9.28649 38.7942 20.1358 33.9135 38.3508L14.4442 111.011C9.56348 129.226 20.4273 148.026 38.6563 152.911L317.836 227.717L346.158 122.016C351.039 103.801 340.175 85.0016 321.946 80.1171L75.8315 14.171Z" fill="#EE7A3A"/>
<path d="M94.429 117.385C93.4256 121.13 91.4308 123.873 88.4789 125.576C85.5269 127.279 82.1518 127.633 78.404 126.629L46.9578 118.203L51.1319 102.625L77.8989 109.797L92.351 55.8615L109.671 60.5024L94.429 117.385Z" fill="white"/>
<path d="M161.499 148.894L113.421 136.012C109.673 135.008 106.927 133.013 105.222 130.063C103.517 127.112 103.161 123.739 104.164 119.994L116.022 75.7418C117.025 71.9969 119.02 69.2538 121.972 67.551C124.93 65.826 128.299 65.4938 132.047 66.498L180.125 79.3806L175.951 94.9586L132.552 83.3298L129.583 94.4095L171.608 105.67L167.778 119.963L125.753 108.702L122.274 121.688L165.673 133.316L161.499 148.894Z" fill="white"/>
<path d="M214.693 149.61C213.689 153.355 211.695 156.098 208.743 157.801C205.791 159.503 202.416 159.858 198.668 158.854L167.221 150.428L171.396 134.85L198.163 142.022L212.615 88.0859L229.934 92.7267L214.693 149.61Z" fill="white"/>
<path d="M285.923 168.696C284.92 172.441 282.925 175.184 279.973 176.887C277.021 178.589 273.646 178.944 269.898 177.94L233.684 168.236C229.936 167.232 227.191 165.237 225.486 162.287C223.781 159.336 223.425 155.963 224.428 152.218L239.67 95.3352L256.99 99.976L242.538 153.912L269.393 161.108L283.845 107.172L301.165 111.813L285.923 168.696Z" fill="white"/>
</svg>
