<svg width="453" height="177" viewBox="0 0 453 177" fill="none" xmlns="http://www.w3.org/2000/svg">
<path d="M430.199 2.13354H2.15625V150.103H430.199V2.13354Z" fill="white"/>
<path d="M430.201 152.283H2.15812C0.964268 152.283 0 151.319 0 150.126V2.15646C0 0.963529 0.964268 0 2.15812 0H430.201C431.395 0 432.359 0.963529 432.359 2.15646V150.126C432.359 151.319 431.395 152.283 430.201 152.283ZM4.31625 147.947H428.043V4.31293H4.31625V147.947Z" fill="#EE7A3A"/>
<path d="M122.44 95.8019H103.568V68.9838H88.8513C87.7034 70.1308 86.3717 71.0255 84.9024 71.6679C78.2903 74.8108 71.7241 77.8161 65.1808 80.7066C58.6376 83.5972 52.0254 86.419 45.3674 89.1719L39.0078 75.6137C42.222 74.329 45.3674 73.0673 48.4439 71.8055C51.5203 70.5667 54.5968 69.2591 57.6733 67.9055H41.9925V54.5309H73.8363V49.9198H43.5307V35.6963H92.7084V52.8103H103.591V34.4346H122.463V95.7789L122.44 95.8019ZM122.922 119.362H49.6836V90.1354H68.5328V103.602H122.899V119.362H122.922Z" fill="#EE7A3A"/>
<path d="M214.345 119.362H195.473V104.748L187.299 112.915H131.969V96.7649H139.086V51.9611H132.451V35.9023H188.746V51.9611H182.593V96.7649H195.496V81.2797H185.968V64.0739H195.496V34.457H214.368V119.362H214.345ZM164.295 96.7649V51.9611H157.361V96.7649H164.295Z" fill="#EE7A3A"/>
<path d="M278.718 86.6708H225.316V53.9798H253.326V48.6805H225.316V34.9388H272.175V66.9645H244.166V72.3556H278.718V86.6938V86.6708ZM305.764 119.362H231.768V90.4102H250.732V104.932H305.764V119.362ZM305.282 96.2831H286.41V66.1845H275.527V50.034H286.41V34.457H305.282V96.2831Z" fill="#EE7A3A"/>
<path d="M389.175 92.9106C383.78 89.3776 378.476 85.753 373.242 81.9906C368.007 78.2513 362.681 74.0301 357.216 69.3501C351.752 74.0301 346.403 78.2513 341.145 81.9906C335.888 85.73 330.584 89.3776 325.258 92.9106L314.766 79.2607C316.947 77.6548 319.243 75.9342 321.653 74.1219C324.064 72.2866 326.475 70.4054 328.908 68.4554C331.342 66.5055 333.73 64.4866 336.071 62.4449C338.413 60.4031 340.617 58.3384 342.661 56.2967C344.199 54.7596 345.255 53.2914 345.829 51.9149C346.403 50.5385 346.701 48.8179 346.701 46.7761V35.9021H367.686V46.7761C367.686 48.8179 367.984 50.5385 368.558 51.9149C369.132 53.2914 370.188 54.7596 371.726 56.2967C373.724 58.3384 375.905 60.4031 378.27 62.4449C380.634 64.4866 383.045 66.5055 385.479 68.4554C387.912 70.4054 390.346 72.3095 392.734 74.1219C395.144 75.9572 397.44 77.6548 399.621 79.2607L389.129 92.9106H389.175ZM399.667 116.265H314.789V100.114H399.667V116.265Z" fill="#EE7A3A"/>
<path d="M415.508 130.076L422.028 174.352L433.094 160.565L450.589 157.904L415.508 130.076Z" fill="white"/>
<path d="M422.028 176.508C421.844 176.508 421.638 176.485 421.454 176.44C420.627 176.21 420.008 175.522 419.87 174.673L413.349 130.397C413.212 129.525 413.648 128.653 414.406 128.195C415.163 127.759 416.127 127.828 416.839 128.378L451.92 156.206C452.586 156.733 452.884 157.628 452.678 158.454C452.471 159.28 451.759 159.899 450.91 160.037L434.265 162.583L423.727 175.706C423.314 176.233 422.694 176.508 422.028 176.508ZM418.446 135.169L423.451 169.121L431.418 159.211C431.762 158.798 432.245 158.5 432.773 158.431L445.331 156.504L418.446 135.169Z" fill="#EE7A3A"/>
</svg>
