<svg width="153" height="153" viewBox="0 0 153 153" fill="none" xmlns="http://www.w3.org/2000/svg">
<path d="M76.6619 151.209C117.897 151.209 151.324 117.807 151.324 76.6043C151.324 35.4015 117.897 2 76.6619 2C35.4272 2 2 35.4015 2 76.6043C2 117.807 35.4272 151.209 76.6619 151.209Z" fill="white" stroke="#E3773B" stroke-width="3.02" stroke-miterlimit="10"/>
<path d="M122.466 50.2453C129.721 62.7023 131.925 80.2981 122.811 92.4339C117.737 99.1786 109.196 102.62 100.862 101.496C84.2628 99.2932 81.0486 87.7081 81.0486 87.7081C85.4567 85.9875 87.7296 81.3992 88.2347 79.7934C88.7398 78.1875 89.176 76.5128 89.4056 74.8152C89.5204 73.9205 89.6122 73.0257 89.6122 72.1081C89.8188 61.5093 81.7833 51.53 72.8294 46.6206C60.3168 39.7613 43.534 40.4724 32.2383 49.4194C44.4294 29.6902 68.9034 20.009 91.9999 27.396C104.237 31.319 115.9 38.9583 122.466 50.2224V50.2453Z" fill="#F3EBE0"/>
<path d="M111.674 114.227C99.7814 125.377 82.9297 130.63 66.2157 127.304C48.8129 118.976 42.614 103.055 44.8181 90.644C45.415 87.2946 46.4022 84.0141 47.7798 80.8941C50.8792 73.92 55.9761 67.9553 62.9785 64.6977C65.3662 63.5965 67.9146 62.8395 70.509 62.5642C62.8866 67.7948 61.1188 81.1923 64.907 90.1852C70.486 103.491 84.6056 111.956 98.5416 113.837C102.881 114.411 107.335 114.48 111.697 114.25L111.674 114.227Z" fill="#EE7A3A"/>
<path d="M89.6106 72.1078C89.6106 73.0254 89.5188 73.9202 89.404 74.8149C88.1183 71.5113 85.8913 68.3913 83.1592 66.1202C79.5088 63.069 74.9859 62.0826 70.5089 62.5643C67.9146 62.8396 65.3662 63.5967 62.9785 64.6978C55.976 67.9555 50.8792 73.9201 47.7797 80.8942C46.4022 84.0142 45.415 87.2948 44.8181 90.6442C42.614 103.055 48.8129 118.976 66.2157 127.304C64.2871 126.937 62.3586 126.432 60.453 125.813C33.2468 117.095 18.2777 88.006 26.9791 60.8438C28.2877 56.7373 30.0785 52.9291 32.2367 49.4191C43.5324 40.4721 60.3152 39.7839 72.8278 46.6203C81.7817 51.5297 89.8172 61.509 89.6106 72.1078Z" fill="#F6B35A"/>
<path d="M124.026 49.3273C117.735 38.568 106.554 30.1716 92.5492 25.6981C69.1083 18.1963 43.6929 27.5333 30.7442 48.4097C30.6983 48.4556 30.6753 48.5244 30.6524 48.5703C28.4024 52.2179 26.5887 56.1638 25.257 60.3161C20.8949 73.9201 22.0887 88.3959 28.632 101.105C35.1752 113.815 46.2643 123.197 59.8789 127.556C61.8304 128.176 63.8278 128.703 65.8022 129.093C65.8022 129.093 65.8022 129.093 65.8252 129.093C69.246 129.782 72.7128 130.103 76.1566 130.103C89.6334 130.103 102.835 124.987 112.868 115.558C112.891 115.535 112.914 115.512 112.937 115.489C112.96 115.466 113.005 115.42 113.028 115.398C113.074 115.352 113.12 115.283 113.143 115.237C113.166 115.191 113.189 115.145 113.212 115.122C113.235 115.053 113.281 115.008 113.304 114.939C113.304 114.893 113.35 114.847 113.35 114.778C113.35 114.732 113.373 114.663 113.396 114.617C113.396 114.549 113.396 114.503 113.396 114.434C113.396 114.388 113.396 114.319 113.396 114.273C113.396 114.25 113.396 114.228 113.396 114.182C113.396 114.136 113.396 114.113 113.396 114.067C113.396 114.021 113.396 113.975 113.396 113.929C113.396 113.86 113.35 113.769 113.327 113.7C113.327 113.677 113.327 113.654 113.304 113.608C113.258 113.516 113.235 113.425 113.166 113.333C113.166 113.333 113.166 113.333 113.166 113.31C112.868 112.828 112.34 112.507 111.743 112.461C111.743 112.461 111.697 112.461 111.674 112.461C111.628 112.461 111.605 112.461 111.559 112.461C106.807 112.713 102.628 112.576 98.7481 112.071C84.1233 110.121 71.4731 101.266 66.5369 89.5201C63.185 81.5825 64.5165 69.2631 71.1746 64.3308C74.2051 64.1014 78.3836 64.5143 81.9882 67.5425C84.3759 69.5384 86.3274 72.1995 87.5212 75.0672C87.3146 76.3748 86.9702 77.7513 86.4881 79.2654C86.0748 80.573 84.0544 84.6336 80.3581 86.0559C79.5086 86.4001 79.0265 87.3177 79.279 88.2124C79.4168 88.74 82.9983 100.945 100.585 103.308C109.722 104.523 118.768 100.784 124.209 93.5347C134.15 80.3207 131.258 61.8302 123.98 49.3732L124.026 49.3273ZM63.2538 90.8736C68.6721 103.766 82.4244 113.47 98.2889 115.604C100.929 115.948 103.684 116.132 106.623 116.155C95.3502 124.803 80.8173 128.313 66.7665 125.583C50.0296 117.462 44.5654 102.367 46.5858 90.9653C47.1597 87.7077 48.101 84.5648 49.4097 81.6283C52.555 74.5166 57.5141 69.2172 63.713 66.3266C64.1262 66.1202 64.5624 65.9595 64.9987 65.799C60.4528 72.8419 60.1085 83.4865 63.2309 90.8965L63.2538 90.8736ZM84.33 64.7437C80.5418 61.5778 75.7204 60.2013 70.3251 60.7749C67.593 61.0502 64.8839 61.8302 62.2207 63.069C55.2183 66.3266 49.6622 72.2454 46.1495 80.183C44.7261 83.3948 43.693 86.813 43.0731 90.3459C41.3282 100.119 44.4506 112.278 54.3229 121.454C44.6802 116.774 36.8512 109.158 31.8462 99.4535C25.7392 87.6159 24.6142 74.1037 28.7009 61.4173C29.9177 57.632 31.5707 54.0073 33.614 50.6579C44.0603 42.5597 59.787 41.5503 71.9781 48.2262C78.7051 51.8967 85.7993 59.3526 87.4753 68.0013C86.534 66.8314 85.4779 65.7301 84.33 64.7895V64.7437ZM121.385 91.3323C116.794 97.4347 108.827 100.738 101.113 99.7058C89.1513 98.1229 84.7203 91.493 83.3427 88.5795C87.1539 86.3771 89.312 82.3395 89.9778 80.3207C90.5747 78.4395 90.988 76.7189 91.2176 75.0672C91.3554 74.0807 91.4472 73.0942 91.4472 72.1307C91.6768 60.2472 82.6999 49.9467 73.723 45.0373C63.0013 39.1644 49.8 38.7286 39.0094 43.3397C51.9351 28.841 72.3914 22.991 91.4702 29.0933C104.626 33.3144 115.095 41.1374 120.926 51.1167C127.607 62.5413 130.316 79.4031 121.385 91.3095V91.3323Z" fill="#EE7A3A"/>
</svg>
